<?xml version="1.0" encoding="utf-8"?>
<!-- Generator: Adobe Illustrator 27.5.0, SVG Export Plug-In . SVG Version: 6.00 Build 0)  -->
<svg version="1.1" xmlns="http://www.w3.org/2000/svg" xmlns:xlink="http://www.w3.org/1999/xlink" x="0px" y="0px"
	 viewBox="0 0 500 500" style="enable-background:new 0 0 500 500;" xml:space="preserve">
<g id="BACKGROUND">
	<rect x="0.001" y="0" style="fill:#FFFFFF;" width="499.999" height="500"/>
</g>
<g id="OBJECTS">
	<g id="_x31_">
		<g>
			<path style="fill-rule:evenodd;clip-rule:evenodd;" d="M453.476,141.377c-0.578-0.219-1.225-0.269-1.845-0.362
				c-0.483-0.073-1.03,0.03-1.454-0.159c-2.248-0.999-4.59-0.783-6.857-0.365c-3.657,0.673-7.266,1.614-10.899,2.424
				c-0.603,0.134-1.341,0.431-1.821,0.216c-1.926-0.862-3.58-0.031-5.252,0.646c-3.381,1.368-6.698,2.908-10.12,4.163
				c-1.41,0.518-3.03,0.709-4.538,0.645c-1.879-0.078-3.802-0.378-5.599-0.93c-3.893-1.198-7.742-2.557-11.567-3.961
				c-4.322-1.586-8.717-2.877-13.347-2.79c-3.794,0.071-7.597,0.344-11.365,0.787c-2.509,0.294-4.891,0.14-7.238-0.699
				c-4.569-1.635-9.211-2.916-13.989-3.879c-3.89-0.784-7.632-2.271-10.581-5.314c-2.476-2.552-5.591-3.936-9.282-3.885
				c-0.826,0.012-1.801-0.433-2.466-0.968c-1.611-1.296-3.359-1.917-5.424-1.956c-3.516-0.066-7.033-0.209-10.541-0.438
				c-1.095-0.071-2.193-0.438-3.239-0.815c-1.836-0.663-3.631-1.443-5.447-2.164c-0.487-0.192-0.987-0.347-1.618-0.565
				c0.534-0.739,0.926-1.312,1.349-1.86c2.724-3.536,4.961-7.32,6.293-11.623c0.558-1.802,1.146-3.686,2.179-5.226
				c1.134-1.693,1.872-3.433,2.242-5.386c0.206-1.085,0.697-1.975,1.7-2.53c2.015-1.112,2.386-2.983,1.816-4.914
				c-0.671-2.283-0.703-4.567-0.744-6.887c-0.018-1.019,0.148-1.882,0.817-2.732c0.913-1.158,0.912-2.358-0.03-3.463
				c-0.896-1.05-1.987-1.941-3.036-2.852c-1.314-1.144-2.726-2.181-3.994-3.371c-0.85-0.797-1.435-1.883-2.304-2.651
				c-0.765-0.676-1.318-1.368-1.66-2.342c-0.682-1.938-1.822-2.515-3.893-2.331c-1.534,0.137-3.082,0.162-4.624,0.173
				c-0.762,0.006-1.587-0.345-2.272-0.149c-0.856,0.245-1.455-0.029-2.176-0.317c-2.576-1.03-5.178-1.954-7.866-0.288
				c-0.166,0.103-0.424,0.172-0.604,0.125c-2.84-0.744-5.246,0.088-7.381,1.973c-0.148,0.131-0.38,0.179-0.58,0.24
				c-1.499,0.456-2.579,1.368-3.1,2.933c-0.441,0.039-0.86,0.056-1.272,0.118c-0.707,0.106-1.204,0.472-1.16,1.245
				c0.096,1.655-0.837,2.653-1.959,3.726c-1.073,1.025-2.416,2.088-2.267,3.86c0.102,1.207-0.262,2.026-1.396,2.526
				c-0.278,0.122-0.592,0.483-0.634,0.771c-0.216,1.504-0.438,3.017-0.482,4.531c-0.03,1.018-0.036,1.932-0.856,2.693
				c-0.948,0.883-0.892,2.001-0.519,3.131c0.148,0.447,0.344,0.877,0.535,1.36c-0.648,0.441-1.207,0.822-1.866,1.271
				c0.238,1.09,0.772,2.155,0.624,3.116c-0.347,2.265,1.016,3.475,2.337,4.615c-0.041,0.885-0.303,1.724-0.044,2.349
				c0.251,0.613,1.031,1.009,1.622,1.538c-0.358,0.467-0.723,0.94-1.106,1.44c0.539,0.456,1.369,0.843,1.359,1.206
				c-0.039,1.326,0.97,1.365,1.858,1.684c0.677,4.209-1.315,7.668-2.701,11.132c-1.602-0.331-3.033-0.601-4.449-0.935
				c-0.388-0.092-0.797-0.304-1.081-0.58c-2.105-2.041-4.605-1.986-7.061-1.079c-2.802,1.036-5.637,1.546-8.59,1.375
				c-1.983-0.115-3.76,0.147-5.214,1.68c-0.952,1.003-2.164,1.47-3.599,1.482c-2.577,0.022-4.991,0.628-7.151,2.159
				c-0.728,0.516-1.631,0.848-2.504,1.08c-2.377,0.631-4.773,1.188-7.172,1.73c-2.865,0.646-5.874,0.825-8.355,2.771
				c-0.606-0.256-1.203-0.467-1.762-0.751c-3.568-1.817-7.181-3.555-10.679-5.499c-6.14-3.413-12.199-6.97-18.31-10.436
				c-2.799-1.587-5.646-3.087-8.453-4.66c-0.732-0.41-1.475-0.858-2.075-1.432c-2.236-2.137-4.396-4.351-6.624-6.496
				c-0.749-0.721-1.626-1.307-2.419-1.984c-0.84-0.716-1.77-1.37-2.45-2.221c-2.062-2.583-2.401-5.797-3.032-8.89
				c-0.589-2.893-1.014-5.827-1.773-8.673c-0.344-1.293-1.135-2.587-2.05-3.581c-1.51-1.644-3.34-2.991-4.936-4.563
				c-1.574-1.55-3.311-2.705-5.32-3.315c-3.57-2.532-7.928-4.026-12.639-4.026c-12.081,0-21.876,9.794-21.876,21.876
				c0,9.531,6.097,17.633,14.601,20.632c2.604,1.189,5.493,1.723,8.793,1.259c0.319-0.045,0.636-0.104,0.953-0.158
				c1.184-0.133,2.338-0.362,3.457-0.677c0.8-0.169,1.601-0.337,2.405-0.481c0.881-0.159,1.804-0.309,2.685-0.221
				c2.797,0.281,7.518,3.46,8.908,5.784c0.343,0.573,0.926,1.023,1.456,1.459c0.485,0.397,1.091,0.648,1.569,1.052
				c3.28,2.762,6.531,5.555,9.81,8.317c0.588,0.495,1.206,1.125,1.903,1.28c1.173,0.262,1.746,1.051,2.388,1.89
				c3.987,5.213,8.285,10.135,13.451,14.237c5.878,4.668,12.367,8.327,19.135,11.504c3.633,1.705,7.364,3.297,11.372,3.771
				c1.852,0.219,2.74,1.09,3.411,2.567c0.087,0.192,0.202,0.372,0.293,0.562c0.709,1.477,1.874,2.03,3.463,1.71
				c1.104-0.223,2.214-0.418,3.301-0.706c2.966-0.785,5.392-0.099,7.257,2.434c0.578,0.785,1.221,1.62,2.029,2.118
				c1.17,0.723,1.332,1.73,1.304,2.882c-0.045,1.829-0.203,3.658-0.185,5.486c0.02,1.972-0.546,3.652-1.647,5.318
				c-5.672,8.579-11.162,17.262-13.973,27.315c-0.896,3.204-2.775,5.79-5.265,7.975c-0.624,0.547-1.34,1.189-1.585,1.93
				c-0.597,1.807-2.033,1.96-3.497,2.035c-0.666,0.033-1.384-0.216-2.019-0.481c-1.031-0.428-1.915-0.278-2.75,0.407
				c-1.195,0.983-2.436,1.915-3.574,2.96c-2.822,2.591-5.87,4.95-9.427,6.298c-2.784,1.058-4.838,2.792-6.634,4.96
				c-3.046,3.678-4.779,7.931-5.128,12.71c-0.105,1.429-0.67,2.48-1.869,3.319c-3.571,2.503-7.101,5.068-10.623,7.641
				c-2.328,1.701-4.667,3.394-6.908,5.207c-6.827,5.52-12.524,12.147-18.065,18.889c-6.39,7.773-12.547,15.736-18.877,23.559
				c-3.54,4.373-7.241,8.619-10.834,12.951c-0.708,0.855-1.454,1.244-2.556,0.941c-0.879-0.24-1.792-0.361-2.674-0.596
				c-1.71-0.455-3.309-0.467-4.791,0.732c-0.463,0.373-1.125,0.602-1.727,0.691c-3.964,0.58-7.925,1.225-11.91,1.607
				c-2.556,0.246-5.008-0.398-7.118-2.018c-1.938-1.484-4.088-2.426-6.561-2.625c-4.996-0.41-7.996,3.531-6.15,8.15
				c0.26,0.65,0.577,1.283,0.928,1.891c0.849,1.457,1.674,2.936,2.618,4.334c2.124,3.145,4.212,6.32,6.512,9.332
				c1.678,2.201,3.856,3.867,6.594,4.723c0.915,0.283,1.805,0.807,2.567,1.4c1.776,1.377,3.44,2.9,5.202,4.299
				c1.923,1.527,3.887,3.004,5.87,4.453c1.139,0.832,2.462,0.91,3.839,0.771c2.372-0.238,3.947-1.801,5.474-3.33
				c2.98-2.992,5.891-6.055,8.739-9.172c1.665-1.82,3.081-3.836,3.741-6.293c0.14-0.521,0.435-1.045,0.789-1.455
				c1.009-1.17,2.033-2.338,3.145-3.408c4.866-4.691,9.884-9.201,15.479-13.039c3.364-2.311,6.654-4.73,9.906-7.195
				c5.717-4.332,11.464-8.637,17.04-13.146c4.479-3.623,8.758-7.5,13.064-11.334c2.943-2.619,5.799-5.336,8.656-8.051
				c0.924-0.877,1.813-0.904,2.848-0.283c1.626,0.971,3.266,1.92,4.907,2.869c0.607,0.35,1.207,0.734,1.855,0.986
				c1.962,0.762,3.921,1.541,5.929,2.168c1.533,0.477,3.122,0.848,4.713,1.041c1.741,0.217,3.513,0.16,5.27,0.258
				c0.411,0.02,0.813,0.18,1.302,0.295c-2.876,2.043-5.565,3.959-8.26,5.867c-2.158,1.527-3.729,3.373-3.766,6.215
				c-0.102,7.49-1.787,14.775-2.841,22.32c-3.002-0.344-5.38,0.877-7.809,1.988c-2.637,1.205-4.21,3.232-4.843,6.006
				c-0.297,1.297-0.503,2.623-0.661,3.945c-0.482,4.047-1.892,7.617-5.019,10.391c-1.686,1.492-3.289,3.078-4.961,4.588
				c-5.93,5.342-7.94,12.059-6.968,19.82c0.096,0.764,0.274,1.525,0.489,2.264c0.801,2.764,3.037,4.174,5.375,5.338
				c2.009,1,4.037,0.41,5.796-0.787c2.786-1.895,5.493-3.91,8.228-5.883c0.653-0.471,1.282-0.977,2.141-1.635
				c0.21,1.17,0.365,1.992,0.502,2.815c0.483,2.912,0.793,5.865,1.481,8.728c0.909,3.781,5.169,7.348,8.984,8.051
				c2.889,0.531,5.426-0.332,7.881-1.65c2.963-1.592,5.213-4.035,7.51-6.416c4.849-5.023,9.157-10.498,13.354-16.064
				c0.338-0.449,0.634-1.014,1.093-1.27c1.938-1.074,2.984-2.941,4.278-4.594c2.514-3.215,4.947-6.496,7.575-9.613
				c4.309-5.107,8.77-10.088,13.105-15.176c0.711-0.834,1.151-1.918,1.624-2.93c2.08-4.459,3.88-9.068,6.24-13.373
				c4.292-7.824,8.939-15.455,13.365-23.205c0.864-1.516,1.535-3.174,2.065-4.836c2.196-6.9,4.298-13.83,6.45-20.746
				c0.63-2.023,0.655-1.975,2.768-2.033c5.338-0.148,9.415-2.635,12.316-7.002c1.318-1.986,2.414-4.137,3.446-6.292
				c1.62-3.385,3.542-6.561,5.984-9.413c1.707-1.991,2.689-4.3,2.905-6.89c0.222-2.657,0.33-5.328,0.41-7.998
				c0.023-0.812,0.159-1.43,0.738-2.075c0.642-0.713,1.146-1.61,1.5-2.51c0.615-1.567,1.101-3.188,1.584-4.803
				c0.853-2.852,1.88-5.638,3.85-7.913c2.813-3.254,3.909-6.775,2.143-10.896c-0.054-0.128-0.044-0.282-0.098-0.409
				c-0.516-1.207-0.309-2.265,0.444-3.35c2.434-3.502,3.768-7.533,5.329-11.447c0.334-0.836,0.426-1.77,0.616-2.662
				c0.688-3.223,1.37-6.448,2.086-9.821c3.514,0.092,6.773-0.813,10.213-0.155c3.853,0.738,7.812,0.964,11.732,1.306
				c3.932,0.344,7.488-0.275,9.407-4.352c0.029-0.064,0.064-0.14,0.119-0.171c0.516-0.3,1.011-0.761,1.561-0.843
				c0.74-0.111,1.545-0.02,2.287,0.144c2.88,0.637,5.73,1.413,8.621,1.999c4.984,1.007,10.009,1.409,15.099,0.877
				c3.775-0.393,7.571-0.586,11.351-0.938c1.814-0.168,3.63-0.412,5.413-0.772c4.363-0.883,8.703-1.667,13.167-0.612
				c2.107,0.498,4.049-0.097,5.718-1.487c1.839-1.531,3.67-3.072,5.496-4.618c1.801-1.525,3.868-2.486,6.105-3.232
				c5.114-1.706,10.389-2.405,15.725-2.833c0.689-0.055,1.485-0.11,2.011-0.479c0.639-0.449,1.299-1.165,1.481-1.885
				c0.23-0.906-0.752-1.236-1.459-1.521c-1.065-0.431-2.157-0.79-3.238-1.179c1.261-0.452,2.505-0.537,3.692-0.846
				c1.003-0.262,2.049-0.628,2.881-1.22C455.838,144.092,455.543,142.158,453.476,141.377z"/>
			<path style="opacity:0.2;fill-rule:evenodd;clip-rule:evenodd;" d="M246.048,432.573c0,5.294-37.463,9.587-83.674,9.587
				c-46.211,0-83.673-4.293-83.673-9.587c0-5.295,37.462-9.588,83.673-9.588C208.585,422.985,246.048,427.278,246.048,432.573z"/>
		</g>
	</g>
</g>
<g id="DESIGNED_BY_FREEPIK">
	<g>
		<g>
			<g>
				<path style="fill:#231F20;" d="M180.14,485.137v-0.16c-0.218,0.249-0.433,0.452-0.644,0.608
					c-0.212,0.156-0.442,0.275-0.689,0.356c-0.247,0.082-0.517,0.122-0.809,0.122c-0.389,0-0.747-0.082-1.078-0.247
					c-0.33-0.163-0.616-0.398-0.856-0.703c-0.243-0.305-0.425-0.662-0.55-1.074c-0.125-0.412-0.188-0.857-0.188-1.335
					c0-1.014,0.247-1.805,0.742-2.37c0.495-0.565,1.145-0.848,1.953-0.848c0.467,0,0.86,0.08,1.181,0.239
					c0.321,0.161,0.634,0.407,0.938,0.739v-2.393c0-0.332,0.065-0.583,0.199-0.753c0.132-0.171,0.321-0.255,0.567-0.255
					c0.245,0,0.433,0.078,0.566,0.234c0.133,0.156,0.198,0.386,0.198,0.69v7.147c0,0.309-0.07,0.541-0.214,0.694
					c-0.143,0.154-0.325,0.232-0.551,0.232c-0.223,0-0.406-0.081-0.55-0.241C180.212,485.662,180.14,485.434,180.14,485.137z
					 M176.952,482.756c0,0.439,0.068,0.813,0.205,1.122c0.137,0.31,0.323,0.542,0.56,0.697c0.238,0.157,0.497,0.235,0.778,0.235
					c0.285,0,0.546-0.074,0.781-0.223c0.235-0.148,0.423-0.377,0.563-0.682c0.141-0.308,0.21-0.691,0.21-1.15
					c0-0.431-0.069-0.802-0.21-1.113c-0.141-0.31-0.33-0.548-0.57-0.713c-0.238-0.163-0.501-0.245-0.785-0.245
					c-0.297,0-0.563,0.085-0.797,0.253c-0.232,0.167-0.414,0.409-0.543,0.724C177.016,481.977,176.952,482.342,176.952,482.756z"/>
				<path style="fill:#231F20;" d="M187.285,483.166h-3.169c0.004,0.368,0.078,0.692,0.223,0.974
					c0.143,0.282,0.337,0.493,0.575,0.636c0.24,0.143,0.505,0.213,0.793,0.213c0.193,0,0.371-0.023,0.531-0.067
					c0.16-0.047,0.315-0.116,0.467-0.214c0.15-0.097,0.288-0.201,0.415-0.313c0.126-0.111,0.29-0.262,0.492-0.451
					c0.083-0.071,0.202-0.106,0.357-0.106c0.166,0,0.301,0.046,0.403,0.137c0.104,0.091,0.155,0.22,0.155,0.386
					c0,0.146-0.059,0.317-0.172,0.514c-0.115,0.195-0.289,0.383-0.52,0.565c-0.232,0.179-0.522,0.328-0.873,0.447
					c-0.351,0.119-0.753,0.179-1.209,0.179c-1.039,0-1.85-0.298-2.428-0.892c-0.577-0.593-0.865-1.398-0.865-2.416
					c0-0.479,0.07-0.922,0.213-1.331c0.143-0.41,0.351-0.762,0.623-1.055c0.273-0.293,0.609-0.517,1.01-0.674
					c0.4-0.156,0.842-0.233,1.329-0.233c0.634,0,1.177,0.132,1.629,0.4c0.454,0.266,0.793,0.611,1.019,1.035
					c0.225,0.424,0.339,0.855,0.339,1.294c0,0.407-0.117,0.671-0.351,0.794C188.038,483.105,187.71,483.166,187.285,483.166z
					 M184.116,482.246h2.939c-0.039-0.555-0.19-0.969-0.448-1.244c-0.259-0.275-0.601-0.412-1.024-0.412
					c-0.403,0-0.734,0.139-0.993,0.418C184.328,481.287,184.172,481.7,184.116,482.246z"/>
				<path style="fill:#231F20;" d="M194.67,483.943c0,0.447-0.108,0.831-0.326,1.149c-0.218,0.318-0.539,0.56-0.965,0.724
					c-0.425,0.165-0.942,0.247-1.553,0.247c-0.581,0-1.08-0.089-1.495-0.268c-0.415-0.179-0.723-0.401-0.92-0.668
					c-0.198-0.267-0.298-0.534-0.298-0.804c0-0.179,0.064-0.331,0.191-0.457c0.126-0.127,0.286-0.19,0.48-0.19
					c0.17,0,0.301,0.042,0.391,0.124c0.092,0.084,0.18,0.201,0.262,0.351c0.166,0.29,0.365,0.505,0.598,0.647
					c0.23,0.143,0.546,0.213,0.946,0.213c0.324,0,0.591-0.071,0.798-0.216c0.208-0.146,0.311-0.31,0.311-0.497
					c0-0.284-0.107-0.491-0.323-0.622c-0.216-0.131-0.57-0.255-1.066-0.375c-0.558-0.138-1.012-0.283-1.361-0.436
					c-0.351-0.151-0.631-0.353-0.84-0.602c-0.21-0.251-0.314-0.557-0.314-0.921c0-0.324,0.097-0.631,0.291-0.92
					c0.193-0.288,0.48-0.52,0.857-0.691c0.378-0.173,0.834-0.259,1.367-0.259c0.42,0,0.798,0.043,1.131,0.131
					c0.336,0.087,0.615,0.204,0.838,0.351c0.225,0.146,0.394,0.309,0.51,0.485c0.117,0.179,0.176,0.353,0.176,0.524
					c0,0.186-0.063,0.338-0.187,0.456c-0.125,0.118-0.302,0.179-0.532,0.179c-0.166,0-0.307-0.048-0.424-0.144
					c-0.117-0.095-0.25-0.236-0.4-0.427c-0.123-0.158-0.267-0.285-0.434-0.38c-0.166-0.095-0.392-0.143-0.678-0.143
					c-0.293,0-0.535,0.062-0.73,0.188c-0.193,0.124-0.29,0.278-0.29,0.466c0,0.17,0.07,0.31,0.213,0.418
					c0.143,0.109,0.335,0.199,0.576,0.27c0.242,0.071,0.573,0.158,0.998,0.262c0.501,0.123,0.912,0.27,1.231,0.439
					c0.317,0.17,0.559,0.371,0.724,0.604C194.589,483.383,194.67,483.647,194.67,483.943z"/>
				<path style="fill:#231F20;" d="M196.326,478.721c-0.227,0-0.419-0.069-0.579-0.209c-0.16-0.138-0.24-0.333-0.24-0.587
					c0-0.23,0.081-0.419,0.246-0.567c0.164-0.149,0.355-0.223,0.573-0.223c0.209,0,0.394,0.067,0.558,0.201
					c0.162,0.136,0.244,0.331,0.244,0.589c0,0.249-0.08,0.444-0.238,0.585C196.73,478.65,196.543,478.721,196.326,478.721z
					 M197.128,480.395v4.683c0,0.324-0.077,0.571-0.232,0.737c-0.155,0.166-0.351,0.249-0.587,0.249
					c-0.238,0-0.431-0.086-0.58-0.255c-0.148-0.172-0.222-0.414-0.222-0.732v-4.637c0-0.319,0.073-0.561,0.222-0.724
					c0.149-0.162,0.342-0.243,0.58-0.243c0.236,0,0.432,0.081,0.587,0.243S197.128,480.105,197.128,480.395z"/>
				<path style="fill:#231F20;" d="M204.227,480.662v4.707c0,0.538-0.058,1-0.173,1.389c-0.114,0.387-0.298,0.708-0.552,0.962
					c-0.254,0.253-0.584,0.44-0.994,0.563c-0.409,0.124-0.919,0.185-1.529,0.185c-0.558,0-1.057-0.078-1.496-0.234
					c-0.438-0.156-0.776-0.357-1.015-0.605c-0.236-0.246-0.356-0.502-0.356-0.763c0-0.198,0.067-0.359,0.203-0.483
					c0.134-0.125,0.297-0.188,0.485-0.188c0.238,0,0.446,0.105,0.624,0.314c0.087,0.107,0.177,0.216,0.27,0.324
					c0.093,0.109,0.197,0.201,0.309,0.279c0.113,0.076,0.249,0.134,0.407,0.172c0.158,0.036,0.341,0.056,0.546,0.056
					c0.42,0,0.745-0.058,0.978-0.175c0.231-0.117,0.394-0.28,0.486-0.49c0.093-0.209,0.147-0.434,0.163-0.673
					c0.016-0.24,0.027-0.625,0.035-1.156c-0.249,0.35-0.537,0.615-0.863,0.798c-0.327,0.182-0.716,0.271-1.167,0.271
					c-0.542,0-1.016-0.138-1.422-0.415c-0.405-0.276-0.717-0.665-0.934-1.163c-0.219-0.499-0.327-1.074-0.327-1.728
					c0-0.487,0.066-0.927,0.199-1.318c0.133-0.392,0.322-0.723,0.566-0.991c0.246-0.27,0.528-0.473,0.85-0.609
					c0.319-0.135,0.672-0.203,1.057-0.203c0.458,0,0.855,0.088,1.192,0.264c0.336,0.177,0.649,0.453,0.938,0.828v-0.221
					c0-0.28,0.069-0.498,0.208-0.652c0.139-0.154,0.317-0.232,0.534-0.232c0.313,0,0.521,0.103,0.624,0.306
					C204.175,479.982,204.227,480.277,204.227,480.662z M199.531,482.715c0,0.656,0.143,1.153,0.43,1.49
					c0.287,0.337,0.658,0.504,1.113,0.504c0.269,0,0.524-0.071,0.762-0.216c0.24-0.146,0.436-0.362,0.586-0.653
					c0.15-0.291,0.226-0.645,0.226-1.059c0-0.661-0.145-1.176-0.437-1.543c-0.291-0.369-0.674-0.554-1.148-0.554
					c-0.464,0-0.834,0.177-1.113,0.528C199.67,481.565,199.531,482.066,199.531,482.715z"/>
				<path style="fill:#231F20;" d="M206.802,480.37v0.196c0.284-0.376,0.597-0.652,0.935-0.829c0.339-0.176,0.728-0.264,1.167-0.264
					c0.428,0,0.81,0.093,1.146,0.28c0.336,0.186,0.588,0.449,0.754,0.788c0.108,0.198,0.176,0.413,0.207,0.641
					c0.033,0.232,0.049,0.523,0.049,0.879v3.016c0,0.324-0.074,0.571-0.223,0.737c-0.148,0.166-0.342,0.249-0.579,0.249
					c-0.241,0-0.438-0.086-0.588-0.255c-0.15-0.172-0.226-0.414-0.226-0.732v-2.7c0-0.535-0.074-0.943-0.223-1.226
					c-0.148-0.283-0.443-0.425-0.888-0.425c-0.288,0-0.552,0.085-0.789,0.258c-0.237,0.173-0.411,0.41-0.522,0.71
					c-0.079,0.241-0.118,0.692-0.118,1.353v2.03c0,0.328-0.077,0.576-0.229,0.739c-0.152,0.165-0.349,0.247-0.591,0.247
					c-0.234,0-0.426-0.086-0.576-0.255c-0.15-0.172-0.226-0.414-0.226-0.732v-4.683c0-0.309,0.067-0.54,0.202-0.692
					c0.135-0.152,0.318-0.228,0.551-0.228c0.143,0,0.272,0.033,0.387,0.102c0.115,0.067,0.207,0.169,0.276,0.302
					C206.768,480.012,206.802,480.177,206.802,480.37z"/>
				<path style="fill:#231F20;" d="M216.66,483.166h-3.17c0.006,0.368,0.078,0.692,0.225,0.974c0.143,0.282,0.336,0.493,0.574,0.636
					c0.24,0.143,0.504,0.213,0.793,0.213c0.193,0,0.371-0.023,0.531-0.067c0.16-0.047,0.314-0.116,0.467-0.214
					c0.15-0.097,0.287-0.201,0.414-0.313c0.127-0.111,0.291-0.262,0.494-0.451c0.082-0.071,0.201-0.106,0.355-0.106
					c0.166,0,0.301,0.046,0.404,0.137c0.102,0.091,0.152,0.22,0.152,0.386c0,0.146-0.057,0.317-0.172,0.514
					c-0.113,0.195-0.287,0.383-0.52,0.565c-0.23,0.179-0.521,0.328-0.871,0.447c-0.352,0.119-0.754,0.179-1.209,0.179
					c-1.039,0-1.85-0.298-2.428-0.892c-0.578-0.593-0.867-1.398-0.867-2.416c0-0.479,0.072-0.922,0.215-1.331
					c0.143-0.41,0.35-0.762,0.623-1.055c0.273-0.293,0.609-0.517,1.01-0.674c0.398-0.156,0.842-0.233,1.328-0.233
					c0.635,0,1.176,0.132,1.631,0.4c0.453,0.266,0.791,0.611,1.018,1.035c0.225,0.424,0.338,0.855,0.338,1.294
					c0,0.407-0.115,0.671-0.35,0.794C217.412,483.105,217.084,483.166,216.66,483.166z M213.49,482.246h2.939
					c-0.039-0.555-0.189-0.969-0.449-1.244c-0.258-0.275-0.6-0.412-1.023-0.412c-0.404,0-0.734,0.139-0.994,0.418
					C213.703,481.287,213.547,481.7,213.49,482.246z"/>
				<path style="fill:#231F20;" d="M223.268,485.137v-0.16c-0.219,0.249-0.434,0.452-0.645,0.608
					c-0.211,0.156-0.441,0.275-0.689,0.356c-0.246,0.082-0.518,0.122-0.809,0.122c-0.389,0-0.748-0.082-1.078-0.247
					c-0.33-0.163-0.615-0.398-0.857-0.703c-0.242-0.305-0.426-0.662-0.549-1.074c-0.125-0.412-0.188-0.857-0.188-1.335
					c0-1.014,0.248-1.805,0.742-2.37c0.494-0.565,1.146-0.848,1.953-0.848c0.467,0,0.861,0.08,1.182,0.239
					c0.32,0.161,0.633,0.407,0.938,0.739v-2.393c0-0.332,0.066-0.583,0.199-0.753c0.131-0.171,0.32-0.255,0.566-0.255
					c0.244,0,0.434,0.078,0.566,0.234c0.133,0.156,0.199,0.386,0.199,0.69v7.147c0,0.309-0.072,0.541-0.213,0.694
					c-0.143,0.154-0.328,0.232-0.553,0.232c-0.221,0-0.404-0.081-0.549-0.241C223.34,485.662,223.268,485.434,223.268,485.137z
					 M220.08,482.756c0,0.439,0.066,0.813,0.203,1.122c0.137,0.31,0.324,0.542,0.563,0.697c0.236,0.157,0.496,0.235,0.777,0.235
					c0.285,0,0.545-0.074,0.779-0.223c0.236-0.148,0.424-0.377,0.564-0.682c0.141-0.308,0.211-0.691,0.211-1.15
					c0-0.431-0.07-0.802-0.211-1.113c-0.141-0.31-0.33-0.548-0.57-0.713c-0.238-0.163-0.502-0.245-0.785-0.245
					c-0.297,0-0.563,0.085-0.797,0.253c-0.232,0.167-0.414,0.409-0.543,0.724C220.145,481.977,220.08,482.342,220.08,482.756z"/>
				<path style="fill:#231F20;" d="M229.891,477.989v2.476c0.305-0.316,0.615-0.559,0.932-0.728
					c0.316-0.167,0.709-0.251,1.176-0.251c0.539,0,1.01,0.127,1.416,0.382c0.404,0.257,0.721,0.626,0.943,1.11
					c0.223,0.484,0.336,1.061,0.336,1.726c0,0.49-0.063,0.939-0.188,1.35c-0.125,0.409-0.307,0.765-0.543,1.064
					c-0.238,0.302-0.525,0.535-0.863,0.698c-0.338,0.165-0.711,0.247-1.119,0.247c-0.25,0-0.484-0.029-0.703-0.089
					c-0.221-0.061-0.408-0.137-0.561-0.234c-0.154-0.097-0.287-0.197-0.395-0.301c-0.109-0.103-0.254-0.258-0.432-0.463v0.16
					c0,0.305-0.072,0.536-0.219,0.692c-0.146,0.156-0.332,0.234-0.559,0.234c-0.229,0-0.412-0.078-0.549-0.234
					c-0.137-0.156-0.205-0.388-0.205-0.692v-7.076c0-0.328,0.066-0.576,0.199-0.745c0.133-0.167,0.318-0.251,0.555-0.251
					c0.25,0,0.441,0.079,0.576,0.239C229.824,477.465,229.891,477.693,229.891,477.989z M229.969,482.804
					c0,0.645,0.146,1.141,0.441,1.487c0.295,0.347,0.682,0.52,1.16,0.52c0.408,0,0.76-0.177,1.055-0.531
					c0.295-0.354,0.441-0.861,0.441-1.523c0-0.427-0.061-0.795-0.184-1.104c-0.123-0.309-0.297-0.548-0.521-0.715
					c-0.227-0.168-0.49-0.253-0.791-0.253c-0.309,0-0.584,0.085-0.824,0.253c-0.242,0.167-0.432,0.411-0.57,0.73
					C230.037,481.984,229.969,482.364,229.969,482.804z"/>
				<path style="fill:#231F20;" d="M236.793,486.265l0.15-0.362l-1.996-5.022c-0.121-0.288-0.184-0.498-0.184-0.628
					c0-0.14,0.035-0.268,0.107-0.387c0.07-0.118,0.168-0.213,0.293-0.284c0.125-0.071,0.254-0.107,0.389-0.107
					c0.234,0,0.41,0.075,0.529,0.223c0.119,0.148,0.223,0.361,0.314,0.638l1.371,3.99l1.301-3.711
					c0.102-0.3,0.195-0.536,0.277-0.706c0.084-0.171,0.172-0.286,0.266-0.345c0.092-0.06,0.225-0.089,0.395-0.089
					c0.123,0,0.24,0.032,0.354,0.098c0.113,0.066,0.199,0.154,0.26,0.265c0.061,0.11,0.094,0.228,0.094,0.35
					c-0.018,0.076-0.043,0.182-0.078,0.321c-0.035,0.138-0.078,0.279-0.131,0.421l-2.113,5.533
					c-0.182,0.486-0.359,0.868-0.535,1.146c-0.174,0.276-0.404,0.49-0.691,0.638c-0.285,0.149-0.674,0.223-1.16,0.223
					c-0.475,0-0.83-0.051-1.068-0.154c-0.238-0.103-0.355-0.291-0.355-0.564c0-0.185,0.055-0.329,0.17-0.431
					c0.111-0.101,0.279-0.151,0.5-0.151c0.088,0,0.174,0.012,0.256,0.036c0.104,0.023,0.191,0.035,0.268,0.035
					c0.186,0,0.332-0.027,0.439-0.084c0.105-0.055,0.201-0.15,0.287-0.288C236.586,486.73,236.684,486.529,236.793,486.265z"/>
			</g>
			<g>
				<path style="fill:#231F20;" d="M260.271,479.614h0.387v-0.487c0-0.509,0.063-0.91,0.191-1.211
					c0.127-0.299,0.346-0.516,0.654-0.652c0.307-0.136,0.727-0.204,1.26-0.204c0.949,0,1.42,0.229,1.42,0.696
					c0,0.149-0.049,0.277-0.15,0.385c-0.096,0.105-0.215,0.16-0.348,0.16c-0.063,0-0.174-0.012-0.33-0.038
					c-0.148-0.021-0.281-0.034-0.389-0.034c-0.293,0-0.479,0.088-0.566,0.259c-0.078,0.173-0.121,0.419-0.121,0.741v0.386h0.395
					c0.619,0,0.926,0.186,0.926,0.56c0,0.262-0.08,0.432-0.246,0.502c-0.162,0.072-0.389,0.107-0.68,0.107h-0.395v4.295
					c0,0.318-0.076,0.563-0.23,0.73c-0.152,0.169-0.348,0.254-0.59,0.254c-0.231,0-0.42-0.085-0.574-0.254
					c-0.152-0.168-0.227-0.412-0.227-0.73v-4.295h-0.447c-0.242,0-0.426-0.052-0.559-0.163c-0.131-0.107-0.195-0.25-0.195-0.424
					C259.457,479.806,259.727,479.614,260.271,479.614"/>
				<path style="fill:#231F20;" d="M265.576,483.723v1.355c0,0.327-0.082,0.574-0.234,0.737c-0.152,0.166-0.348,0.247-0.586,0.247
					c-0.236,0-0.43-0.082-0.578-0.251c-0.146-0.165-0.225-0.41-0.225-0.733v-4.514c0-0.73,0.262-1.094,0.787-1.094
					c0.271,0,0.465,0.084,0.584,0.255c0.119,0.171,0.184,0.421,0.197,0.755c0.193-0.334,0.391-0.584,0.594-0.755
					c0.207-0.171,0.477-0.255,0.818-0.255s0.67,0.084,0.99,0.255c0.322,0.171,0.482,0.397,0.482,0.679
					c0,0.196-0.068,0.362-0.203,0.488c-0.139,0.131-0.285,0.193-0.441,0.193c-0.063,0-0.207-0.039-0.434-0.111
					c-0.229-0.071-0.43-0.107-0.602-0.107c-0.238,0-0.434,0.063-0.582,0.186c-0.15,0.128-0.27,0.311-0.354,0.554
					c-0.08,0.247-0.137,0.541-0.17,0.878C265.59,482.823,265.576,483.236,265.576,483.723"/>
				<path style="fill:#231F20;" d="M273.027,483.165h-3.172c0.006,0.368,0.078,0.693,0.223,0.975
					c0.146,0.278,0.336,0.49,0.576,0.635c0.242,0.143,0.504,0.212,0.795,0.212c0.193,0,0.369-0.021,0.531-0.069
					c0.158-0.043,0.314-0.116,0.465-0.212c0.15-0.096,0.287-0.199,0.414-0.313c0.127-0.11,0.293-0.261,0.494-0.449
					c0.084-0.071,0.203-0.109,0.356-0.109c0.168,0,0.301,0.047,0.406,0.139c0.104,0.092,0.152,0.219,0.152,0.385
					c0,0.148-0.057,0.318-0.168,0.514c-0.117,0.197-0.289,0.384-0.521,0.566c-0.234,0.178-0.525,0.329-0.875,0.445
					c-0.35,0.119-0.752,0.18-1.207,0.18c-1.043,0-1.852-0.296-2.43-0.889c-0.576-0.596-0.869-1.402-0.869-2.419
					c0-0.479,0.074-0.924,0.219-1.334c0.139-0.411,0.348-0.759,0.623-1.055c0.271-0.294,0.607-0.518,1.008-0.674
					c0.398-0.155,0.842-0.233,1.33-0.233c0.633,0,1.176,0.133,1.629,0.403c0.451,0.265,0.797,0.61,1.018,1.034
					c0.227,0.426,0.34,0.855,0.34,1.296c0,0.405-0.117,0.669-0.352,0.791C273.779,483.104,273.451,483.165,273.027,483.165
					 M269.855,482.244h2.938c-0.039-0.554-0.186-0.97-0.445-1.242c-0.26-0.277-0.6-0.412-1.025-0.412
					c-0.404,0-0.736,0.137-0.994,0.417C270.068,481.287,269.91,481.698,269.855,482.244"/>
				<path style="fill:#231F20;" d="M279.77,483.165h-3.17c0.002,0.368,0.078,0.693,0.221,0.975c0.145,0.278,0.336,0.49,0.576,0.635
					c0.238,0.143,0.502,0.212,0.795,0.212c0.191,0,0.369-0.021,0.527-0.069c0.162-0.043,0.314-0.116,0.469-0.212
					c0.15-0.096,0.287-0.199,0.414-0.313c0.125-0.11,0.291-0.261,0.494-0.449c0.084-0.071,0.203-0.109,0.353-0.109
					c0.168,0,0.303,0.047,0.408,0.139c0.102,0.092,0.148,0.219,0.148,0.385c0,0.148-0.055,0.318-0.17,0.514
					c-0.111,0.197-0.285,0.384-0.52,0.566c-0.23,0.178-0.523,0.329-0.873,0.445c-0.348,0.119-0.754,0.18-1.207,0.18
					c-1.043,0-1.85-0.296-2.43-0.889c-0.578-0.596-0.867-1.402-0.867-2.419c0-0.479,0.07-0.924,0.217-1.334
					c0.141-0.411,0.35-0.759,0.623-1.055c0.271-0.294,0.607-0.518,1.008-0.674c0.398-0.155,0.844-0.233,1.33-0.233
					c0.631,0,1.174,0.133,1.633,0.403c0.451,0.265,0.791,0.61,1.014,1.034c0.225,0.426,0.34,0.855,0.34,1.296
					c0,0.405-0.119,0.669-0.35,0.791C280.52,483.104,280.191,483.165,279.77,483.165 M276.6,482.244h2.938
					c-0.041-0.554-0.191-0.97-0.447-1.242c-0.264-0.277-0.602-0.412-1.025-0.412c-0.404,0-0.736,0.137-0.996,0.417
					C276.81,481.287,276.65,481.698,276.6,482.244"/>
				<path style="fill:#231F20;" d="M283.318,480.382v0.194c0.305-0.375,0.621-0.65,0.953-0.828c0.324-0.177,0.699-0.266,1.113-0.266
					c0.498,0,0.961,0.129,1.381,0.386c0.42,0.259,0.748,0.635,0.992,1.129c0.244,0.497,0.367,1.081,0.367,1.758
					c0,0.498-0.07,0.957-0.211,1.376c-0.141,0.418-0.336,0.767-0.58,1.05c-0.246,0.282-0.535,0.502-0.869,0.654
					c-0.338,0.15-0.693,0.228-1.08,0.228c-0.461,0-0.852-0.094-1.166-0.28c-0.313-0.183-0.613-0.459-0.9-0.816v2.433
					c0,0.711-0.26,1.069-0.777,1.069c-0.307,0-0.506-0.091-0.607-0.274c-0.094-0.187-0.147-0.453-0.147-0.807v-6.996
					c0-0.31,0.068-0.537,0.201-0.692c0.135-0.149,0.32-0.228,0.553-0.228c0.23,0,0.416,0.078,0.561,0.234
					C283.248,479.863,283.318,480.086,283.318,480.382 M286.496,482.736c0-0.427-0.066-0.795-0.197-1.101
					c-0.129-0.308-0.311-0.542-0.539-0.706c-0.23-0.163-0.49-0.247-0.772-0.247c-0.447,0-0.824,0.178-1.131,0.527
					c-0.307,0.354-0.461,0.872-0.461,1.559c0,0.641,0.152,1.146,0.459,1.504c0.305,0.357,0.68,0.536,1.133,0.536
					c0.268,0,0.52-0.078,0.748-0.232c0.232-0.158,0.416-0.392,0.553-0.704C286.426,483.559,286.496,483.18,286.496,482.736"/>
				<path style="fill:#231F20;" d="M289.756,478.716c-0.227,0-0.418-0.071-0.576-0.209c-0.162-0.139-0.242-0.333-0.242-0.586
					c0-0.229,0.082-0.419,0.248-0.568c0.164-0.146,0.354-0.223,0.57-0.223c0.213,0,0.398,0.067,0.559,0.2
					c0.162,0.137,0.244,0.334,0.244,0.591c0,0.251-0.08,0.444-0.236,0.585C290.164,478.645,289.977,478.716,289.756,478.716
					 M290.559,480.391v4.689c0,0.322-0.076,0.567-0.23,0.732c-0.156,0.169-0.35,0.251-0.588,0.251c-0.238,0-0.43-0.085-0.58-0.254
					c-0.146-0.174-0.223-0.417-0.223-0.729v-4.642c0-0.319,0.076-0.56,0.223-0.722c0.15-0.166,0.342-0.245,0.58-0.245
					c0.238,0,0.432,0.079,0.588,0.245C290.482,479.878,290.559,480.103,290.559,480.391"/>
				<path style="fill:#231F20;" d="M295.783,485.322l-1.428-2.353l-0.879,0.83v1.29c0,0.313-0.084,0.552-0.248,0.72
					c-0.162,0.169-0.353,0.254-0.566,0.254c-0.25,0-0.447-0.082-0.588-0.251c-0.143-0.165-0.215-0.41-0.215-0.733v-6.915
					c0-0.358,0.072-0.632,0.207-0.82c0.139-0.19,0.34-0.283,0.596-0.283c0.248,0,0.445,0.085,0.594,0.257
					c0.146,0.169,0.221,0.422,0.221,0.751v3.934l1.822-1.914c0.227-0.234,0.395-0.4,0.516-0.486c0.119-0.087,0.264-0.13,0.432-0.13
					c0.203,0,0.371,0.064,0.51,0.192c0.133,0.13,0.201,0.292,0.201,0.483c0,0.236-0.221,0.556-0.66,0.951l-0.859,0.789l1.66,2.614
					c0.121,0.196,0.213,0.341,0.266,0.441c0.053,0.099,0.082,0.199,0.082,0.288c0,0.259-0.072,0.459-0.215,0.61
					c-0.141,0.148-0.326,0.222-0.553,0.222c-0.197,0-0.352-0.052-0.459-0.16C296.113,485.793,295.965,485.6,295.783,485.322"/>
				<path style="fill:#231F20;" d="M299.307,486.063c-0.246,0-0.455-0.08-0.635-0.238c-0.178-0.156-0.268-0.379-0.268-0.666
					c0-0.241,0.086-0.449,0.256-0.622c0.172-0.175,0.381-0.261,0.631-0.261c0.248,0,0.459,0.086,0.639,0.257
					c0.176,0.173,0.264,0.382,0.264,0.626c0,0.282-0.088,0.505-0.264,0.662C299.75,485.982,299.543,486.063,299.307,486.063"/>
				<path style="fill:#231F20;" d="M307.367,484.055c0,0.201-0.061,0.418-0.182,0.647c-0.119,0.23-0.305,0.448-0.555,0.655
					c-0.246,0.208-0.557,0.377-0.934,0.503c-0.375,0.126-0.801,0.192-1.27,0.192c-1.002,0-1.785-0.295-2.348-0.877
					c-0.559-0.585-0.842-1.368-0.842-2.35c0-0.667,0.129-1.254,0.387-1.766c0.256-0.509,0.629-0.904,1.113-1.183
					c0.488-0.28,1.074-0.419,1.748-0.419c0.42,0,0.805,0.061,1.156,0.185c0.352,0.122,0.647,0.282,0.891,0.474
					c0.242,0.196,0.43,0.402,0.557,0.62c0.129,0.22,0.193,0.426,0.193,0.618c0,0.191-0.072,0.355-0.215,0.491
					c-0.146,0.135-0.322,0.203-0.525,0.203c-0.137,0-0.248-0.036-0.338-0.104c-0.09-0.07-0.189-0.182-0.299-0.339
					c-0.199-0.299-0.404-0.526-0.623-0.674c-0.215-0.152-0.488-0.227-0.82-0.227c-0.477,0-0.865,0.188-1.158,0.563
					c-0.293,0.372-0.439,0.887-0.439,1.533c0,0.305,0.039,0.587,0.113,0.842c0.074,0.255,0.184,0.473,0.326,0.653
					c0.143,0.179,0.314,0.315,0.516,0.409c0.203,0.095,0.426,0.14,0.666,0.14c0.326,0,0.603-0.074,0.834-0.225
					c0.236-0.151,0.44-0.38,0.617-0.689c0.098-0.182,0.205-0.323,0.318-0.427c0.113-0.102,0.256-0.155,0.422-0.155
					c0.197,0,0.363,0.077,0.49,0.226C307.301,483.725,307.367,483.887,307.367,484.055"/>
				<path style="fill:#231F20;" d="M314.361,482.768c0,0.48-0.076,0.928-0.223,1.336c-0.154,0.408-0.369,0.759-0.654,1.051
					c-0.285,0.293-0.627,0.518-1.022,0.675c-0.398,0.153-0.844,0.234-1.336,0.234c-0.492,0-0.934-0.081-1.326-0.239
					c-0.389-0.156-0.73-0.385-1.016-0.677c-0.289-0.298-0.506-0.646-0.658-1.048c-0.143-0.402-0.219-0.847-0.219-1.332
					c0-0.491,0.078-0.941,0.225-1.35c0.15-0.408,0.367-0.756,0.648-1.045c0.281-0.289,0.621-0.511,1.02-0.668
					c0.402-0.156,0.844-0.234,1.326-0.234c0.49,0,0.935,0.078,1.336,0.238c0.398,0.156,0.74,0.384,1.027,0.674
					c0.287,0.297,0.502,0.644,0.65,1.045C314.287,481.836,314.361,482.279,314.361,482.768 M312.734,482.768
					c0-0.662-0.147-1.176-0.436-1.543c-0.289-0.373-0.682-0.555-1.172-0.555c-0.318,0-0.598,0.082-0.84,0.246
					c-0.24,0.163-0.426,0.406-0.557,0.727c-0.131,0.321-0.195,0.696-0.195,1.125c0,0.425,0.063,0.792,0.191,1.108
					c0.131,0.319,0.314,0.561,0.555,0.728c0.24,0.167,0.521,0.253,0.846,0.253c0.49,0,0.883-0.184,1.172-0.557
					C312.588,483.931,312.734,483.418,312.734,482.768"/>
				<path style="fill:#231F20;" d="M320.545,482.887v2.153c0,0.342-0.076,0.595-0.232,0.769c-0.156,0.169-0.357,0.255-0.611,0.255
					c-0.244,0-0.445-0.086-0.594-0.255c-0.154-0.174-0.232-0.427-0.232-0.769v-2.581c0-0.408-0.014-0.727-0.039-0.953
					c-0.029-0.221-0.105-0.41-0.227-0.551c-0.123-0.148-0.318-0.221-0.582-0.221c-0.531,0-0.879,0.182-1.047,0.551
					c-0.168,0.36-0.254,0.883-0.254,1.566v2.188c0,0.337-0.078,0.593-0.227,0.766c-0.156,0.171-0.355,0.258-0.604,0.258
					c-0.248,0-0.447-0.087-0.603-0.258c-0.158-0.173-0.236-0.429-0.236-0.766v-4.636c0-0.307,0.07-0.539,0.211-0.695
					c0.143-0.16,0.328-0.238,0.555-0.238c0.223,0,0.408,0.076,0.559,0.222c0.146,0.149,0.221,0.354,0.221,0.615v0.153
					c0.283-0.334,0.584-0.582,0.902-0.738c0.322-0.162,0.678-0.24,1.07-0.24c0.408,0,0.758,0.082,1.049,0.243
					c0.293,0.163,0.533,0.41,0.727,0.735c0.273-0.33,0.566-0.577,0.881-0.738c0.313-0.16,0.658-0.24,1.039-0.24
					c0.44,0,0.824,0.089,1.146,0.262c0.318,0.174,0.557,0.424,0.715,0.746c0.139,0.296,0.207,0.758,0.207,1.386v3.164
					c0,0.342-0.076,0.595-0.228,0.769c-0.154,0.169-0.359,0.255-0.613,0.255c-0.246,0-0.445-0.087-0.602-0.258
					c-0.156-0.173-0.236-0.429-0.236-0.766v-2.725c0-0.35-0.014-0.626-0.043-0.836c-0.029-0.21-0.111-0.387-0.238-0.529
					c-0.133-0.143-0.332-0.215-0.596-0.215c-0.215,0-0.416,0.066-0.609,0.192c-0.191,0.124-0.342,0.298-0.451,0.508
					C320.605,481.709,320.545,482.192,320.545,482.887"/>
			</g>
			<g>
				<path style="fill:#231F20;" d="M245.104,482.375c-0.002-0.003-0.002-0.006-0.002-0.011
					C245.102,482.369,245.102,482.372,245.104,482.375z"/>
				<path style="fill:#231F20;" d="M245.186,482.893c0,0,0,0,0.002,0c-0.031-0.148-0.057-0.294-0.074-0.438
					C245.131,482.6,245.156,482.748,245.186,482.893z"/>
				<path style="fill:#231F20;" d="M245.723,484.397c-0.004-0.006-0.008-0.013-0.012-0.021
					C245.715,484.384,245.719,484.391,245.723,484.397z"/>
				<path style="fill:#231F20;" d="M245.67,484.297c-0.014-0.027-0.027-0.057-0.041-0.083
					C245.643,484.243,245.656,484.27,245.67,484.297z"/>
				<path style="fill:#231F20;" d="M245.336,483.473c0.08,0.25,0.176,0.492,0.285,0.725c-0.111-0.237-0.205-0.48-0.283-0.725
					H245.336z"/>
				<path style="fill:#231F20;" d="M251.377,476.164c0.313,0,0.545,0.026,0.809,0.07l0.076-0.477c0,0-0.732-0.226-1.695-0.147
					l-0.074-0.26c0.299-0.063,0.523-0.328,0.523-0.646c0-0.364-0.297-0.659-0.66-0.659c-0.365,0-0.66,0.295-0.66,0.659
					c0,0.317,0.223,0.583,0.521,0.646l0.084,0.289c-1.021,0.141-1.834,0.54-1.834,0.54l0.143,0.44
					c0.619-0.206,1.154-0.331,1.641-0.383C250.727,476.186,251.084,476.164,251.377,476.164z"/>
				<path style="fill:#231F20;" d="M245.709,478.576l0.004-0.004c0.023-0.032,0.047-0.062,0.072-0.09l-0.197-0.142l-0.305-0.222
					c-0.016,0.023-0.496,0.465-0.875,1.279c-0.018-0.025-0.035-0.051-0.057-0.074c-0.113-0.124-0.273-0.188-0.475-0.184
					c-0.002,0-0.006,0-0.008,0c-0.125,0-0.211-0.041-0.268-0.093c0.057-0.071,0.09-0.16,0.09-0.258c0-0.23-0.188-0.419-0.418-0.419
					c-0.23,0-0.418,0.189-0.418,0.419c0,0.232,0.188,0.418,0.418,0.418c0.035,0,0.07-0.007,0.104-0.013
					c0.104,0.113,0.266,0.214,0.504,0.209c0.123-0.001,0.215,0.03,0.273,0.097c0.07,0.075,0.094,0.185,0.1,0.267
					c0,0.002,0,0.004,0,0.004c-0.273,0.744-0.195,1.669-0.195,1.669l0.662,0.025c0.012-0.337,0.061-0.927,0.23-1.393
					C245.281,479.166,245.693,478.6,245.709,478.576z"/>
				<path style="fill:#231F20;" d="M257.127,476.718c-0.231,0-0.418,0.186-0.418,0.417c0,0.037,0.004,0.071,0.014,0.104
					c-0.113,0.104-0.215,0.268-0.211,0.507c0.002,0.124-0.029,0.213-0.096,0.273c-0.053,0.048-0.119,0.072-0.185,0.088
					c-0.49-0.689-1.096-1.109-1.096-1.109l-0.477,0.509c0.359,0.326,0.727,0.733,1.082,1.244c0.246,0.352,0.498,0.806,0.709,1.259
					l0.641-0.305c0,0-0.293-0.721-0.703-1.369c0.07-0.024,0.143-0.064,0.205-0.12c0.127-0.113,0.188-0.273,0.184-0.474
					c0-0.131,0.041-0.219,0.094-0.275c0.072,0.054,0.16,0.089,0.258,0.089c0.23,0,0.418-0.189,0.418-0.419
					C257.545,476.904,257.357,476.718,257.127,476.718z"/>
				<path style="fill:#231F20;" d="M255.467,482.469c-0.883,0.43-2.332,0.996-4.238,1.262c-0.75,0.104-1.477,0.142-2.143,0.142
					c-0.869,0-1.639-0.064-2.227-0.139c-0.674-0.086-1.199-0.19-1.521-0.262c0.078,0.244,0.172,0.487,0.283,0.725
					c0.002,0.006,0.006,0.012,0.008,0.017c0.014,0.026,0.027,0.056,0.041,0.083c0.014,0.028,0.027,0.055,0.041,0.079
					c0.004,0.008,0.008,0.015,0.012,0.021c0.189,0.357,0.416,0.685,0.674,0.969c0.9,0.984,1.818,1.14,1.826,1.141l0.014,0.003
					l0.014,0.005c0.008,0.002,0.822,0.265,2.057,0.265c1.217,0,2.41-0.245,3.547-0.728c0.842-0.431,1.639-1.085,2.033-1.669
					c0.305-0.451,0.527-0.934,0.656-1.434c0.07-0.267,0.125-0.692,0.092-1.141C256.387,481.973,255.996,482.211,255.467,482.469z"/>
				<path style="fill:#231F20;" d="M245.992,478.785c-0.025,0.037-0.408,0.578-0.709,1.408c-0.227,0.622-0.217,1.526-0.217,1.537
					v0.002c0,0.212,0.012,0.424,0.035,0.632c0,0.005,0,0.008,0.002,0.011c0.002,0.027,0.008,0.053,0.01,0.08
					c0.018,0.143,0.043,0.29,0.074,0.438c0.438,0.111,3.049,0.721,5.967,0.314c1.83-0.254,3.219-0.795,4.063-1.204
					c0.701-0.341,1.15-0.647,1.324-0.773c-0.174-0.644-0.65-1.65-1.088-2.279c-1.254-1.791-2.605-2.251-3.299-2.364
					c-0.266-0.044-0.477-0.068-0.777-0.068c-0.279,0-0.627,0.021-1.09,0.07c-0.465,0.049-0.982,0.171-1.582,0.373
					c-0.842,0.281-1.605,0.725-2.205,1.28l-0.02,0.019C246.391,478.341,246.205,478.514,245.992,478.785z M253.66,478.368
					c0.602,0,1.09,0.488,1.09,1.09c0,0.601-0.488,1.09-1.09,1.09c-0.6,0-1.088-0.489-1.088-1.09
					C252.572,478.856,253.061,478.368,253.66,478.368z M248.51,478.325c0.973,0,1.76,0.788,1.76,1.761
					c0,0.973-0.787,1.759-1.76,1.759c-0.971,0-1.76-0.786-1.76-1.759C246.75,479.113,247.539,478.325,248.51,478.325z"/>
			</g>
		</g>
	</g>
</g>
</svg>
