<svg xmlns="http://www.w3.org/2000/svg" xml:space="preserve" width="140" height="140" id="hashtag">
  <path d="M61.741 61.415h16.521v17.167H61.741z" transform="rotate(-108.513 70.008 70.003)" fill="#7ed1b5"></path>
  <path d="M53.255 14.191C11.403 26.746 1.634 44.883 14.191 86.744c12.558 41.854 30.699 51.623 72.551 39.062 41.857-12.559 51.624-30.697 39.066-72.551-12.552-41.859-30.695-51.62-72.553-39.064zm51.384 66.241-7.89 2.639 2.732 8.17a6.31 6.31 0 0 1-6.148 8.316 6.315 6.315 0 0 1-5.825-4.309l-2.736-8.166-16.274 5.453 2.734 8.164a6.316 6.316 0 0 1-6.146 8.318 6.314 6.314 0 0 1-5.826-4.305l-2.737-8.172-7.892 2.648a6.315 6.315 0 0 1-4.011-11.979l7.896-2.646-5.249-15.662-7.892 2.645a6.315 6.315 0 0 1-7.993-3.986 6.314 6.314 0 0 1 3.978-7.988l7.896-2.648-2.736-8.164a6.31 6.31 0 0 1 3.982-7.992 6.32 6.32 0 0 1 7.995 3.982l2.732 8.168 16.279-5.451-2.74-8.166a6.32 6.32 0 0 1 3.981-7.994 6.32 6.32 0 0 1 7.996 3.982l2.732 8.166 7.896-2.643a6.313 6.313 0 0 1 7.99 3.982 6.313 6.313 0 0 1-3.982 7.992l-7.892 2.643 5.245 15.67 7.896-2.648a6.319 6.319 0 0 1 7.992 3.982 6.32 6.32 0 0 1-3.983 7.999z" fill="#7ed1b5"></path>
  <path d="M61.741 61.415h16.521v17.167H61.741z" transform="rotate(-108.513 70.008 70.003)" fill="#9deace"></path>
  <path d="M69.084 40.244a6.292 6.292 0 0 0-.316 4.766l1.019 3.035 1.722-.578-2.425-7.223zM40.834 49.701a6.305 6.305 0 0 0-.315 4.77l1.015 3.031 1.722-.578-2.422-7.223zM104.639 80.432l-7.89 2.639 1.718 5.137 6.172-2.066a6.316 6.316 0 0 0 3.984-7.996c-.101-.295-.238-.559-.375-.826a6.31 6.31 0 0 1-3.609 3.112z" fill="#5fb2a2"></path>
  <path d="M53.255 19.902c41.858-12.557 60.001-2.797 72.554 39.062 2.943 9.818 4.646 18.318 5.007 25.756.466-8.717-1.278-19.039-5.007-31.465-12.553-41.859-30.696-51.62-72.554-39.064-32.037 9.612-45.257 22.508-44.07 46.793 1.091-20.654 14.641-32.257 44.07-41.082z" fill="#9deace"></path>
  <path d="m95.381 52.787-7.892 2.643 1.722 5.135 6.17-2.066a6.314 6.314 0 0 0 3.982-7.994c-.098-.293-.238-.557-.372-.828a6.285 6.285 0 0 1-3.61 3.11zM31.381 73.271a6.314 6.314 0 0 0 7.993 3.985l7.892-2.645 3.528 10.529 1.721-.576-5.249-15.662-7.892 2.645a6.353 6.353 0 0 1-2.172.326 6.325 6.325 0 0 1-5.461-3.461 6.275 6.275 0 0 0-.36 4.859zM95.499 99.23a6.315 6.315 0 0 1-7.991-3.983l-2.736-8.166-16.274 5.453 1.721 5.133 14.554-4.877 2.736 8.168a6.317 6.317 0 0 0 7.991 3.983 6.31 6.31 0 0 0 3.982-7.99l-.316-.943a6.291 6.291 0 0 1-3.667 3.222zM67.251 108.693a6.314 6.314 0 0 1-7.992-3.981l-2.737-8.172-7.892 2.648a6.318 6.318 0 0 1-7.631-3.139 6.276 6.276 0 0 0-.362 4.863 6.321 6.321 0 0 0 7.993 3.985l7.892-2.646 2.737 8.172a6.315 6.315 0 0 0 7.992 3.981 6.316 6.316 0 0 0 3.98-7.996l-.315-.939a6.286 6.286 0 0 1-3.665 3.224z" fill="#5fb2a2"></path>
  <path d="M129.901 70.5c-.023-.152-.053-.309-.079-.461a100.757 100.757 0 0 0-.796-4.244 122.8 122.8 0 0 0-.642-2.904c-.094-.404-.187-.807-.286-1.215-.238-.979-.494-1.975-.762-2.98-.104-.395-.201-.783-.311-1.182a176.37 176.37 0 0 0-1.218-4.258c-12.551-41.86-30.694-51.621-72.552-39.065-1.18.355-2.326.715-3.454 1.078-.347.111-.686.225-1.027.336-.796.264-1.58.527-2.352.793-.358.125-.717.25-1.069.375-.844.299-1.669.604-2.481.91-.22.082-.446.164-.664.248-.982.377-1.936.76-2.871 1.15-.331.137-.651.277-.977.416a92.067 92.067 0 0 0-2.92 1.303c-.56.262-1.107.529-1.649.797-.33.162-.667.324-.99.488-.777.398-1.534.801-2.271 1.211-.347.191-.678.391-1.017.586-.426.248-.85.496-1.262.746-.373.229-.74.459-1.102.691a70.54 70.54 0 0 0-1.049.691c-.363.244-.729.488-1.079.736-.327.232-.64.469-.955.705-.634.471-1.246.951-1.838 1.439-.243.201-.492.4-.729.605a49.445 49.445 0 0 0-1.653 1.514c-.343.33-.683.66-1.007.996-.138.143-.268.289-.403.436a35.206 35.206 0 0 0-2.015 2.342l-.172.213a35.93 35.93 0 0 0-1.211 1.684c-.286.424-.564.85-.829 1.281-.06.1-.117.203-.177.303a32.514 32.514 0 0 0-2.26 4.58c-.035.09-.072.176-.106.266a33.88 33.88 0 0 0-.578 1.604l-.062.193c-.761 2.338-1.292 4.818-1.599 7.453l-.009.084c-1.062 9.293.634 20.5 4.772 34.299 12.558 41.854 30.699 51.623 72.551 39.062 35.596-10.676 47.973-25.403 43.16-55.305zm-21.651 6.824-.002-.006a6.307 6.307 0 0 1-3.609 3.113l-7.89 2.639 2.732 8.17a6.286 6.286 0 0 1-.314 4.773l-.002-.006a6.291 6.291 0 0 1-3.666 3.223 6.315 6.315 0 0 1-7.991-3.983l-2.736-8.166-16.274 5.453 2.734 8.164a6.29 6.29 0 0 1-.314 4.773l-.001-.004a6.287 6.287 0 0 1-5.831 3.549 6.314 6.314 0 0 1-5.826-4.305l-2.737-8.172-7.892 2.648a6.389 6.389 0 0 1-2.17.322 6.28 6.28 0 0 1-.901-.092c-.105-.02-.206-.051-.31-.072a6.155 6.155 0 0 1-.557-.146c-.127-.041-.25-.092-.373-.141a4.877 4.877 0 0 1-.839-.404 5.709 5.709 0 0 1-1.041-.752 5.974 5.974 0 0 1-.392-.373c-.071-.076-.138-.158-.207-.24a5.739 5.739 0 0 1-.371-.463c-.044-.062-.08-.131-.122-.195a6.767 6.767 0 0 1-.347-.582l-.001.002a6.137 6.137 0 0 1-.361-.848 6.316 6.316 0 0 1 3.982-7.994l7.896-2.646-5.249-15.662-7.892 2.645a6.353 6.353 0 0 1-2.172.326 6.255 6.255 0 0 1-.899-.094c-.109-.018-.214-.049-.322-.074a5.708 5.708 0 0 1-.543-.143c-.129-.041-.253-.094-.379-.143a6.814 6.814 0 0 1-.439-.188 7.872 7.872 0 0 1-.761-.442 5.792 5.792 0 0 1-.695-.541 6.148 6.148 0 0 1-.36-.344c-.09-.094-.173-.197-.258-.297-.11-.131-.222-.262-.321-.402-.074-.105-.138-.219-.206-.328-.093-.152-.191-.299-.273-.459a6.381 6.381 0 0 1-.364-.859 6.314 6.314 0 0 1 3.978-7.988l7.896-2.648-2.421-7.223-.315-.941a6.31 6.31 0 0 1 3.982-7.992 6.32 6.32 0 0 1 7.995 3.982l2.732 8.168 14.558-4.873 1.722-.578-2.74-8.166a6.32 6.32 0 0 1 3.981-7.994 6.32 6.32 0 0 1 7.996 3.982l2.732 8.166 7.896-2.643a6.313 6.313 0 0 1 7.62 8.867l-.002-.004a6.322 6.322 0 0 1-2.457 2.592c-.006.006-.014.008-.02.01a6.053 6.053 0 0 1-1.134.51l-7.892 2.643 5.245 15.67 7.896-2.648a6.319 6.319 0 0 1 7.992 3.982 6.303 6.303 0 0 1-.374 4.892z" fill="none" stroke="#33363a" stroke-width="3" stroke-linecap="round" strokeLinejoin="round" stroke-miterlimit="10"></path>
  <path d="M64.485 80.563 59.24 64.898l16.277-5.45 5.246 15.665z" fill="none" stroke="#33363a" stroke-width="3" stroke-linecap="round" strokeLinejoin="round" stroke-miterlimit="10"></path>
</svg>
