<svg id="visual" viewBox="0 0 900 600" width="900" height="600" xmlns="http://www.w3.org/2000/svg" xmlns:xlink="http://www.w3.org/1999/xlink" version="1.1"><rect x="0" y="0" width="900" height="600" fill="#CDC2AF"></rect><path d="M0 366L21.5 367.7C43 369.3 86 372.7 128.8 382.8C171.7 393 214.3 410 257.2 406.3C300 402.7 343 378.3 385.8 368.2C428.7 358 471.3 362 514.2 367.8C557 373.7 600 381.3 642.8 389.7C685.7 398 728.3 407 771.2 406.7C814 406.3 857 396.7 878.5 391.8L900 387L900 601L878.5 601C857 601 814 601 771.2 601C728.3 601 685.7 601 642.8 601C600 601 557 601 514.2 601C471.3 601 428.7 601 385.8 601C343 601 300 601 257.2 601C214.3 601 171.7 601 128.8 601C86 601 43 601 21.5 601L0 601Z" fill="#993b1f"></path><path d="M0 432L21.5 427.3C43 422.7 86 413.3 128.8 409.2C171.7 405 214.3 406 257.2 412.3C300 418.7 343 430.3 385.8 430.8C428.7 431.3 471.3 420.7 514.2 420.2C557 419.7 600 429.3 642.8 439.3C685.7 449.3 728.3 459.7 771.2 457.2C814 454.7 857 439.3 878.5 431.7L900 424L900 601L878.5 601C857 601 814 601 771.2 601C728.3 601 685.7 601 642.8 601C600 601 557 601 514.2 601C471.3 601 428.7 601 385.8 601C343 601 300 601 257.2 601C214.3 601 171.7 601 128.8 601C86 601 43 601 21.5 601L0 601Z" fill="#b86b52"></path><path d="M0 474L21.5 472.7C43 471.3 86 468.7 128.8 474.7C171.7 480.7 214.3 495.3 257.2 499.7C300 504 343 498 385.8 491.5C428.7 485 471.3 478 514.2 477.5C557 477 600 483 642.8 487.3C685.7 491.7 728.3 494.3 771.2 490.8C814 487.3 857 477.7 878.5 472.8L900 468L900 601L878.5 601C857 601 814 601 771.2 601C728.3 601 685.7 601 642.8 601C600 601 557 601 514.2 601C471.3 601 428.7 601 385.8 601C343 601 300 601 257.2 601C214.3 601 171.7 601 128.8 601C86 601 43 601 21.5 601L0 601Z" fill="#d49b88"></path><path d="M0 506L21.5 508.5C43 511 86 516 128.8 514.3C171.7 512.7 214.3 504.3 257.2 501C300 497.7 343 499.3 385.8 501.2C428.7 503 471.3 505 514.2 507.2C557 509.3 600 511.7 642.8 508.2C685.7 504.7 728.3 495.3 771.2 493.2C814 491 857 496 878.5 498.5L900 501L900 601L878.5 601C857 601 814 601 771.2 601C728.3 601 685.7 601 642.8 601C600 601 557 601 514.2 601C471.3 601 428.7 601 385.8 601C343 601 300 601 257.2 601C214.3 601 171.7 601 128.8 601C86 601 43 601 21.5 601L0 601Z" fill="#ecccc2"></path><path d="M0 568L21.5 565.7C43 563.3 86 558.7 128.8 555.8C171.7 553 214.3 552 257.2 554.3C300 556.7 343 562.3 385.8 562.8C428.7 563.3 471.3 558.7 514.2 557.2C557 555.7 600 557.3 642.8 560.5C685.7 563.7 728.3 568.3 771.2 570.7C814 573 857 573 878.5 573L900 573L900 601L878.5 601C857 601 814 601 771.2 601C728.3 601 685.7 601 642.8 601C600 601 557 601 514.2 601C471.3 601 428.7 601 385.8 601C343 601 300 601 257.2 601C214.3 601 171.7 601 128.8 601C86 601 43 601 21.5 601L0 601Z" fill="#ffffff"></path></svg>