<?xml version="1.0" encoding="utf-8"?>
<!-- Generator: Adobe Illustrator 27.5.0, SVG Export Plug-In . SVG Version: 6.00 Build 0)  -->
<svg version="1.1" xmlns="http://www.w3.org/2000/svg" xmlns:xlink="http://www.w3.org/1999/xlink" x="0px" y="0px"
	 viewBox="0 0 500 500" style="enable-background:new 0 0 500 500;" xml:space="preserve">
<g id="BACKGROUND">
	<rect style="fill:#FFFFFF;" width="500" height="500"/>
</g>
<g id="OBJECTS">
	<ellipse style="fill:#BABBEA;" cx="241.112" cy="465.668" rx="185.191" ry="5.149"/>
	<path style="fill:#D2D3FF;" d="M428.041,270.405l-62.98,114.978c-24.728,45.145-78.508,63.707-119.51,41.248l-145.2-79.535
		c-41.002-22.459-54.312-77.77-29.583-122.915l62.98-114.978c7.512-13.715,17.703-24.976,29.407-33.378
		c10.729-7.708,22.729-13.013,35.089-15.597c18.535-3.882,37.887-1.659,55.012,7.721l145.2,79.535
		c14.804,8.109,25.996,20.5,33.094,35.14c2.793,5.765,4.951,11.878,6.444,18.217C443.226,223.02,440.332,247.966,428.041,270.405z"
		/>
	<path style="fill:#EEEFFF;" d="M212.281,141.236c-17.497,31.943-57.58,43.655-89.523,26.158
		c-5.574-3.053-10.534-6.795-14.826-11.061l25.816-47.131c7.512-13.715,17.703-24.976,29.407-33.378
		c10.729-7.708,22.729-13.013,35.089-15.597C220.762,80.186,227.349,113.729,212.281,141.236z"/>
	<path style="fill:#EEEFFF;" d="M428.041,270.405l-29.36,53.601c-0.92-0.456-1.834-0.932-2.742-1.429
		c-36.112-19.781-49.352-65.095-29.572-101.207c13.507-24.659,38.923-38.651,65.183-38.746c2.793,5.765,4.951,11.878,6.444,18.217
		C443.226,223.02,440.332,247.966,428.041,270.405z"/>
	<circle style="fill:#EEEFFF;" cx="125.604" cy="269.351" r="36.769"/>
	<circle style="fill:#EEEFFF;" cx="197.492" cy="238.202" r="20.031"/>
	
		<ellipse transform="matrix(0.7281 -0.6855 0.6855 0.7281 -139.9416 108.7825)" style="fill:#EEEFFF;" cx="67.149" cy="230.787" rx="20.031" ry="20.031"/>
	
		<ellipse transform="matrix(0.8181 -0.5751 0.5751 0.8181 -149.8229 278.9131)" style="fill:#EEEFFF;" cx="365.921" cy="376.257" rx="26.5" ry="26.5"/>
	
		<ellipse transform="matrix(0.9571 -0.2899 0.2899 0.9571 -8.1672 74.8882)" style="fill:#EEEFFF;" cx="248.733" cy="65.016" rx="26.5" ry="26.5"/>
	
		<ellipse transform="matrix(0.4792 -0.8777 0.8777 0.4792 -125.7524 474.0956)" style="fill:#EEEFFF;" cx="336.618" cy="343.012" rx="10.279" ry="10.279"/>
	<path style="fill:#EEEFFF;" d="M242.542,120.596c-1.911,3.488-6.288,4.767-9.776,2.856c-3.488-1.911-4.767-6.288-2.857-9.776
		c1.911-3.488,6.288-4.767,9.776-2.856C243.174,112.731,244.453,117.108,242.542,120.596z"/>
	<path style="fill:#EEEFFF;" d="M330.784,371.16c-1.364,2.489-4.487,3.402-6.977,2.038c-2.489-1.364-3.402-4.487-2.038-6.977
		c1.364-2.49,4.487-3.402,6.977-2.038C331.235,365.547,332.148,368.671,330.784,371.16z"/>
	<path style="fill:#EEEFFF;" d="M182.856,270.508c-1.364,2.489-4.487,3.402-6.977,2.038c-2.489-1.364-3.402-4.487-2.039-6.977
		c1.364-2.489,4.487-3.402,6.977-2.038C183.307,264.895,184.22,268.018,182.856,270.508z"/>
	<g>
		<g>
			<path style="fill:#020B2A;" d="M299.918,162.9c0.502,1.102,1.003,2.204,1.505,3.306c0.251,0.551,0.502,1.102,0.753,1.653
				c0.173,0.38,0.369,0.757,0.51,1.15c0.119-0.284,0.232-0.571,0.331-0.862c0.107-0.314,0.206-0.633,0.314-0.948
				c-0.009-0.089,0.015-0.18,0.091-0.251c0.03-0.08,0.054-0.163,0.088-0.242c0.016-0.038,0.038-0.068,0.061-0.096
				c0.017-0.452-0.486-1.049-0.67-1.325c-0.404-0.604-0.765-1.234-1.085-1.886c-0.57-1.164-1.15-2.49-1.281-3.791
				c-0.121-1.205,0.272-2.521,1.46-3.05c2.039-0.909,4.611,0.38,5.319,2.429c0.029,0.084,0.025,0.159,0.008,0.228
				c0.145,0.159,0.291,0.317,0.434,0.477c0.305-0.256,0.542-0.583,0.738-0.933c0.573-1.023,0.834-2.199,1.355-3.25
				c0.556-1.122,1.254-2.157,2.079-3.098c1.65-1.881,3.712-3.367,5.934-4.505c2.474-1.268,5.269-2.335,8.064-1.601
				c1.384,0.364,2.654,1.092,3.845,1.867c1.305,0.849,2.581,1.747,3.867,2.625c1.33,0.908,2.659,1.816,3.989,2.724
				c0.549,0.375,1.111,0.755,1.464,1.335c0.178,0.293,0.263,0.611,0.301,0.939c2.497-0.885,4.375-3.546,4.135-6.22
				c-0.058-0.646-0.236-1.298-0.593-1.846c-0.383-0.588-0.963-0.927-1.606-1.171c-1.605-0.609-3.253-1.123-4.876-1.68
				c-3.333-1.144-6.666-2.291-9.998-3.441c-1.47-0.507-2.942-1.012-4.502-1.143c-1.289-0.108-2.581-0.003-3.839,0.293
				c-1.294,0.305-2.536,0.802-3.678,1.482c-0.552,0.329-1.087,0.695-1.588,1.097c-0.127,0.102-0.245,0.215-0.367,0.323
				c0.289-0.095,0.581-0.182,0.878-0.251c0.359-0.084,0.506,0.422,0.204,0.588c-1.072,0.59-2.202,1.066-3.288,1.631
				c-1.053,0.547-2.074,1.152-3.066,1.802c-1.781,1.168-3.484,2.511-4.974,4.036c-1.469,1.505-2.699,3.274-3.24,5.328
				c-0.267,1.013-0.351,2.09-0.182,3.127C298.992,160.862,299.457,161.885,299.918,162.9z"/>
			<path style="fill:#020B2A;" d="M298.326,184.619c1.298,1.232,2.734,2.327,4.146,3.424c1.474,1.146,2.966,2.275,4.543,3.276
				c1.526,0.969,3.134,1.821,4.857,2.383c1.367,0.447,2.764,0.658,4.182,0.618c0.049-0.281,0.141-0.566,0.233-0.836
				c-0.385-0.151-0.227-0.717,0.17-0.714c0.026,0,0.052,0.003,0.078,0.003c0.14-0.395,0.288-0.786,0.452-1.172
				c0.76-1.787,1.714-3.498,2.86-5.066c0.582-0.796,1.211-1.556,1.878-2.283c0.331-0.361,0.672-0.711,1.024-1.052
				c0.29-0.281,0.608-0.649,0.972-0.859c-0.039-0.014-0.08-0.028-0.119-0.042c-2.638-0.943-5.251-2.33-7.328-4.225
				c-0.419-0.382,0.204-1.057,0.647-0.734c0.546,0.398,1.092,0.798,1.649,1.18c1.11,0.762,2.284,1.432,3.509,1.99
				c1.21,0.551,2.507,1.083,3.815,1.345c0.61,0.122,1.283,0.165,1.87-0.078c0.551-0.228,0.98-0.673,1.375-1.105
				c0.88-0.962,1.655-2.027,2.327-3.143c0.675-1.12,1.236-2.304,1.682-3.534c0.463-1.28,0.714-2.593,1.044-3.908
				c0.339-1.351,1.056-2.47,1.803-3.626c0.738-1.14,1.281-2.338,1.622-3.655c0.341-1.314,0.491-2.671,0.589-4.021
				c0.048-0.663,0.082-1.327,0.114-1.991c0.03-0.633,0.061-1.219-0.412-1.701c-0.458-0.468-1.084-0.805-1.621-1.171
				c-0.637-0.434-1.274-0.869-1.911-1.303c-1.274-0.869-2.548-1.738-3.821-2.608c-2.217-1.514-4.616-3.21-7.448-2.828
				c-1.334,0.18-2.603,0.673-3.82,1.231c-1.083,0.496-2.133,1.069-3.124,1.729c-1.936,1.289-3.665,2.939-4.874,4.936
				c-0.599,0.989-0.966,2.051-1.388,3.12c-0.416,1.056-0.964,2.067-1.994,2.629c-0.195,0.107-0.475,0.048-0.616-0.121
				c-0.548-0.658-1.078-1.33-1.61-2.001c-0.128-0.162-0.124-0.339-0.048-0.477c-0.411-0.404-0.918-0.702-1.511-0.851
				c-0.886-0.223-2.039-0.054-2.426,0.88c-0.447,1.079,0.085,2.389,0.473,3.41c0.422,1.112,0.963,2.176,1.595,3.183
				c0.292,0.465,0.633,0.916,0.654,1.487c0.011,0.283-0.074,0.53-0.223,0.738c-0.038,1.154-0.582,2.359-1.072,3.369
				c-0.994,2.047-2.264,3.975-3.578,5.829c-0.663,0.936-1.352,1.853-2.066,2.751c-0.37,0.465-0.747,0.926-1.13,1.38
				c-0.18,0.214-0.373,0.508-0.609,0.715c0.241,0.537,0.511,1.059,0.854,1.543C297.099,183.378,297.695,184.02,298.326,184.619z"/>
			<path style="fill:#020B2A;" d="M178.054,109.74c0.324,0.378,0.663,0.744,1.009,1.102c0.696,0.719,1.429,1.399,2.168,2.073
				c1.458,1.329,2.951,2.634,4.207,4.162c0.617,0.751,1.298,1.588,1.647,2.505c0.249,0.655,0.266,1.455-0.139,2.002
				c0.294,0.254,0.047,0.794-0.37,0.818c-0.874,0.05-1.687-0.472-2.351-0.989c-0.669-0.521-1.27-1.128-1.966-1.615
				c-0.508-0.355-1.171-0.711-1.816-0.578c-0.226,0.046-0.241,0.115-0.257,0.344c-0.016,0.231-0.007,0.46,0.028,0.689
				c0.074,0.476,0.233,0.925,0.451,1.353c0.481,0.944,1.227,1.713,1.975,2.45c0.773,0.762,1.547,1.519,2.268,2.331
				c1.431,1.611,2.703,3.364,3.8,5.218c0.53,0.895,0.938,1.897,1.596,2.708c0.621,0.766,1.447,1.324,2.228,1.916
				c0.334-0.489,0.731-0.947,1.082-1.404c0.581-0.758,1.163-1.517,1.744-2.275c1.005-1.312,2.006-2.633,3.06-3.908
				c-0.021-0.015-0.044-0.027-0.063-0.046c-0.366-0.374-0.555-0.885-0.752-1.364c-0.2-0.486-0.375-0.984-0.533-1.485
				c-0.315-0.999-0.552-2.02-0.773-3.043c-0.755-3.507-1.53-7.008-2.905-10.335c-0.686-1.66-1.514-3.259-2.511-4.754
				c-0.833-1.25-1.942-2.764-3.589-2.373c0.368,0.383,0.731,0.772,1.077,1.175c0.824,0.961,1.574,1.98,2.261,3.043
				c0.346,0.536,0.674,1.083,0.983,1.641c0.292,0.528,0.712,1.144,0.694,1.767c-0.008,0.296-0.388,0.492-0.629,0.308
				c-0.48-0.367-0.712-1.03-0.996-1.547c-0.289-0.526-0.594-1.043-0.916-1.549c-1.151-1.811-2.523-3.493-4.055-4.995
				c-0.759-0.744-1.556-1.462-2.407-2.101c-0.363-0.273-0.837-0.589-1.291-0.326c-0.441,0.255-0.39,0.821-0.174,1.21
				c0.038,0.069,0.043,0.144,0.026,0.214c0.808,0.447,1.553,0.99,2.242,1.613c0.934,0.843,1.733,1.829,2.459,2.853
				c0.369,0.52,0.729,1.05,1.062,1.594c0.183,0.3,0.34,0.604,0.506,0.913c0.14,0.259,0.259,0.473,0.175,0.769
				c-0.032,0.114-0.181,0.224-0.302,0.2c-0.326-0.065-0.456-0.264-0.643-0.525c-0.179-0.251-0.363-0.494-0.534-0.752
				c-0.328-0.495-0.649-0.994-0.991-1.479c-1.189-1.687-2.594-3.271-4.398-4.315c-0.438-0.253-0.897-0.463-1.374-0.629
				c-0.42-0.146-0.961-0.36-1.408-0.221c-0.992,0.308,0.356,1.853,0.712,2.243c0.117,0.129,0.135,0.269,0.101,0.395
				c0.119,0.062,0.236,0.127,0.349,0.195c0.943,0.573,1.842,1.236,2.703,1.926c0.869,0.695,1.701,1.438,2.489,2.223
				c0.782,0.779,1.57,1.587,2.167,2.52c0.305,0.477-0.421,0.87-0.773,0.52c-0.855-0.852-1.607-1.799-2.474-2.643
				c-0.847-0.826-1.746-1.596-2.69-2.31c-0.426-0.322-0.861-0.633-1.305-0.93c-0.432-0.289-0.87-0.602-1.363-0.778
				c-0.781-0.278-1.745,0.068-1.369,1.041C177.388,108.973,177.731,109.363,178.054,109.74z"/>
			<path style="fill:#020B2A;" d="M99.053,298.619c3.032-1.261,4.891-4.536,4.632-7.784c-0.164,0.052-0.326,0.111-0.493,0.156
				c-1.338,0.361-2.754,0.481-4.134,0.368c-2.716-0.222-5.457-1.311-7.404-3.251c-1.776-1.77-3.035-4.522-1.941-6.972
				c0.108-0.242,0.357-0.294,0.548-0.22c0.082-0.146,0.168-0.291,0.252-0.436c-0.456,0.156-0.937,0.24-1.426,0.251
				c-1.802,0.043-3.421-0.858-5.075-1.439c-1.72-0.604-3.505-0.975-5.293-1.314c-1.841-0.349-3.694-0.673-5.494-1.206
				c-0.872-0.258-1.723-0.571-2.553-0.941c-0.822-0.366-1.632-0.766-2.486-1.056c-0.859-0.291-1.742-0.43-2.647-0.327
				c-0.921,0.105-1.821,0.362-2.708,0.619c-1.658,0.482-3.286,1.072-4.838,1.832c-1.506,0.738-3.061,1.633-4.262,2.82
				c-0.616,0.609-0.855,1.33-0.702,2.186c0.139,0.775,0.454,1.522,0.809,2.221c1.383,2.724,3.855,4.831,6.596,6.117
				c3.341,1.568,7.042,2.088,10.698,2.239c2.012,0.083,4.026,0.059,6.039,0.047c1.958-0.011,3.933-0.045,5.886,0.123
				c1.666,0.143,3.179,0.621,4.612,1.478c1.249,0.746,2.374,1.677,3.536,2.547c1.112,0.833,2.277,1.647,3.607,2.089
				C96.204,299.231,97.695,299.184,99.053,298.619z"/>
			<path style="fill:#020B2A;" d="M119.729,406.211c-0.556-1.149-1.014-2.347-1.379-3.57c-0.363-1.217-0.629-2.465-0.773-3.727
				c-0.092-0.803-0.181-1.645-0.06-2.444c-0.299,0.134-0.608,0.249-0.931,0.34c-1.51,0.426-3.092,0.386-4.636,0.601
				c-1.468,0.205-2.929,0.602-4.232,1.324c-1.29,0.715-2.337,1.77-2.95,3.12c-0.704,1.55-1.008,3.253-1.568,4.856
				c-2.03,5.812-5.9,10.987-10.889,14.591c-1.225,0.885-2.513,1.651-3.842,2.368c-1.112,0.6-2.567,1.363-2.847,2.723
				c-0.305,1.477,0.964,2.804,2.042,3.611c1.354,1.013,2.889,1.772,4.528,2.196c1.606,0.416,3.407,0.548,4.963-0.123
				c1.313-0.566,2.374-1.566,3.31-2.624c0.961-1.087,1.818-2.261,2.777-3.35c1.156-1.311,2.452-2.486,3.813-3.58
				c5.099-4.096,11.596-7.383,14.47-13.592c0.035-0.076,0.085-0.141,0.141-0.198C120.684,408.325,120.158,407.097,119.729,406.211z"
				/>
			<path style="fill:#020B2A;" d="M241.927,286.956c-3.609-2.588-7.082-5.359-10.482-8.215c-3.527-2.962-6.984-6.009-10.423-9.072
				c-1.809-1.612-3.609-3.235-5.397-4.871c-0.91-0.832-1.815-1.67-2.714-2.515c-0.524-0.493-1.055-0.981-1.57-1.484
				c-0.054-0.007-0.109-0.023-0.166-0.066c-0.607-0.458-1.112-0.955-1.605-1.533c-1.936-2.271-3.449-5.145-4.168-8.045
				c-0.252-1.015-0.384-2.068-0.329-3.112c-0.715,0.15-1.429,0.299-2.144,0.447c-8.432,1.746-16.938,3.347-25.566,3.625
				c-4.411,0.142-8.819-0.128-13.229-0.189c-4.244-0.059-8.486,0.14-12.703,0.626c-4.128,0.476-8.227,1.212-12.262,2.204
				c-4.053,0.996-7.984,2.359-11.97,3.583c-1.977,0.607-3.973,1.161-6.003,1.558c-1.006,0.197-2.023,0.306-3.03,0.488
				c-0.495,0.089-0.978,0.212-1.42,0.459c-0.359,0.2-0.676,0.469-1.021,0.691c-0.788,0.506-1.674,0.602-2.591,0.596
				c-0.914-0.006-1.79,0.004-2.688,0.202c-1.772,0.391-3.402,1.286-4.856,2.352c-3.105,2.274-5.788,5.237-8.266,8.161
				c-2.589,3.055-4.826,6.349-7.084,9.649c-0.001,0.002-0.003,0.002-0.004,0.004c-0.022,0.228-0.031,0.458-0.017,0.691
				c0.167,2.655,2.342,4.731,4.575,5.875c2.429,1.243,5.325,1.581,7.971,0.919c1.439-0.36,2.783-1.014,4.185-1.484
				c1.416-0.475,2.824-0.6,4.31-0.582c1.389,0.018,2.863,0.105,4.161-0.482c1.317-0.595,2.351-1.658,3.71-2.181
				c1.442-0.556,3.01-0.734,4.54-0.868c1.627-0.143,3.262-0.184,4.895-0.145c3.333,0.08,6.646,0.479,9.951,0.885
				c6.648,0.818,13.296,1.636,19.943,2.454l19.446,2.393c0.021-0.029,0.04-0.06,0.064-0.087c0.058-0.067,0.195-0.069,0.208,0.041
				c0.006,0.049,0.006,0.068,0.007,0.08l0.307,0.038c0.339,0.042,0.493,0.322,0.484,0.588c0.349,0.251,0.679,0.518,0.995,0.81
				c0.653,0.604,1.228,1.284,1.754,2.001c0.971,1.326,1.807,2.753,2.623,4.177c0.841,1.467,1.644,2.958,2.318,4.51
				c0.662,1.523,1.21,3.111,1.504,4.749c0.145,0.808,0.226,1.63,0.237,2.451c0.01,0.781-0.022,1.697-0.382,2.4
				c-0.128,0.251-0.495,0.203-0.648,0.004c-0.436,1.07-0.969,2.113-1.426,3.142c-0.835,1.879-1.654,3.766-2.512,5.634
				c-0.793,1.726-1.652,3.439-2.773,4.979c-1.104,1.518-2.457,2.831-3.816,4.118c-1.419,1.343-2.807,2.706-4.096,4.176
				c-1.326,1.512-2.579,3.085-3.824,4.664c-2.613,3.315-5.222,6.635-7.832,9.952c-1.301,1.653-2.602,3.306-3.902,4.959
				c-1.238,1.573-2.499,3.145-3.476,4.898c-0.914,1.639-1.579,3.405-2.824,4.839c-1.191,1.371-2.672,2.434-4.113,3.521
				c-5.525,4.168-11.086,8.331-16.103,13.113c-2.454,2.339-4.772,4.828-6.843,7.515c-1.953,2.534-3.559,5.257-5.119,8.035
				c0.121,0.159,0.138,0.379-0.076,0.54c-0.022,0.016-0.045,0.029-0.067,0.045c-0.214,1.082-0.047,2.243,0.119,3.314
				c0.334,2.152,0.934,4.244,1.853,6.221c0.228,0.49,0.47,0.976,0.736,1.446c0.191,0.337,0.448,0.759,0.825,0.909
				c0.412,0.165,0.823-0.237,1.1-0.492c0.388-0.359,0.633-0.788,0.945-1.206c0.199-0.266,0.54-0.256,0.756-0.094
				c0.945-0.69,1.894-1.374,2.847-2.053c10.05-7.158,20.208-14.166,30.235-21.355c2.385-1.71,4.729-3.481,6.957-5.392
				c2.242-1.922,4.297-4.033,6.321-6.18c2.027-2.15,4.049-4.303,6.246-6.281c2.136-1.924,4.384-3.719,6.639-5.501
				c8.582-6.78,17.444-13.195,26.034-19.963c8.511-6.706,16.78-13.782,24.083-21.81c3.648-4.01,6.796-8.488,10.642-12.314
				c1.819-1.81,3.845-3.257,5.945-4.712c1.86-1.289,3.767-2.743,4.529-4.963c0.029-0.085,0.072-0.151,0.122-0.204
				c-0.793-0.395-1.584-0.793-2.365-1.212C249.248,291.928,245.52,289.533,241.927,286.956z"/>
			<path style="fill:#020B2A;" d="M412.408,169.353c-1.31-1.493-2.791-2.877-4.44-3.991c-1.556-1.052-3.369-1.849-5.272-1.597
				c-0.094,0.103-0.184,0.207-0.283,0.309c-2.778,2.871-5.743,5.559-8.852,8.067c-3.103,2.503-6.349,4.824-9.698,6.986
				c-3.37,2.176-6.848,4.185-10.401,6.047c-3.545,1.857-7.166,3.568-10.841,5.153c-1.844,0.796-3.703,1.556-5.576,2.282
				c-1.68,0.651-3.385,1.353-5.146,1.781c0.126,0.223,0.028,0.56-0.258,0.601c-0.663,0.096-1.299-0.112-1.948-0.243
				c-0.647-0.13-1.295-0.252-1.945-0.367c-1.264-0.223-2.534-0.416-3.807-0.58c-4.588-0.591-9.224-0.803-13.848-0.627
				c-2.303,0.088-4.589,0.321-6.883,0.519c-1.169,0.101-2.344,0.19-3.518,0.185c-0.827-0.004-1.697-0.023-2.528-0.173
				c-0.066,0.177-0.128,0.367-0.196,0.555c0.041-0.004,0.082-0.006,0.124-0.011c0.679-0.079,0.908,0.941,0.218,1.054
				c-2.095,0.342-4.268-0.016-6.249-0.728c-3.655-1.314-6.803-3.743-9.823-6.119c-1.437-1.131-2.911-2.259-4.186-3.576
				c-1.02-1.054-2.028-2.35-2.391-3.808c-0.839,0.003-1.677-0.029-2.513-0.11c-3.657-0.353-7.198-1.465-10.574-2.877
				c-1.694-0.709-3.354-1.494-4.999-2.31c-1.642-0.815-3.312-1.611-4.899-2.529c-1.596-0.923-2.826-2.245-4.272-3.363
				c-1.312-1.014-2.76-1.841-4.265-2.533c-3.023-1.391-6.233-2.305-9.347-3.462c-7.087-2.633-13.366-7.038-19.715-11.056
				c-1.6-1.012-3.225-1.994-4.785-3.066c-1.533-1.053-2.883-2.277-4.166-3.62c-2.432-2.546-5.007-4.867-7.848-6.951
				c-2.77-2.031-5.695-3.833-8.672-5.54c-2.994-1.717-6.105-3.229-9.066-4.999c-1.135,1.665-2.376,3.261-3.592,4.866
				c-0.618,0.816-1.236,1.632-1.854,2.448c-0.494,0.652-1.303,1.395-1.042,2.29c0.205,0.705,0.769,1.288,1.221,1.845
				c0.533,0.657,1.069,1.31,1.611,1.96c1.083,1.299,2.183,2.584,3.301,3.853c2.263,2.571,4.596,5.079,6.996,7.523
				c2.37,2.413,4.806,4.762,7.303,7.043c1.3,1.188,2.619,2.356,4.006,3.441c1.31,1.025,2.679,2.056,4.175,2.797
				c0.262,0.13,0.439,0.383,0.333,0.688c-0.002,0.007-0.007,0.013-0.01,0.02c1.738,1.728,3.568,3.371,5.566,4.791
				c2.09,1.485,4.315,2.773,6.563,4.001c2.36,1.289,4.743,2.538,7.116,3.801c1.222,0.651,2.444,1.301,3.666,1.952
				c1.12,0.596,2.304,1.139,3.34,1.878c1.002,0.714,1.625,1.657,2.252,2.693c0.61,1.009,1.352,1.814,2.412,2.356
				c0.262,0.134,0.294,0.534,0.146,0.753c-0.092,0.136-0.22,0.204-0.359,0.221c0.131,0.41,0.252,0.823,0.356,1.243
				c0.79,3.193,1.229,6.657-0.079,9.779c-0.606,1.448-1.526,2.796-1.842,4.353c-0.158,0.781-0.175,1.603-0.496,2.344
				c-0.307,0.708-0.83,1.259-1.378,1.789c-4.196,4.052-7.434,8.919-11.274,13.284c-1.879,2.136-3.905,4.155-6.224,5.814
				c-0.632,0.452-1.292,0.865-1.909,1.339c-0.639,0.491-1.16,1.057-1.641,1.701c-0.466,0.624-0.921,1.259-1.489,1.796
				c-0.536,0.506-1.154,0.924-1.79,1.293c-1.375,0.798-2.858,1.414-4.28,2.123c-1.528,0.762-3.039,1.557-4.533,2.384
				c-1.473,0.816-2.929,1.663-4.366,2.541c-1.324,0.809-2.738,1.589-3.879,2.653c-0.817,0.762-1.293,1.672-1.528,2.648
				c0.19,0.247,0.169,0.65-0.141,0.815c-0.165,1.55,0.19,3.206,0.74,4.682c0.531,1.423,1.211,2.791,2.023,4.074
				c0.586,0.928,1.263,1.789,1.927,2.66c0.441,0.343,0.86,0.704,1.279,1.075c3.529,3.127,7.002,6.316,10.528,9.447
				c3.304,2.934,6.626,5.849,10.02,8.68c3.299,2.751,6.672,5.419,10.172,7.911c3.485,2.482,7.098,4.79,10.868,6.815
				c0.928,0.499,1.866,0.981,2.813,1.442c0.999,0.486,2.007,1,3.081,1.301c0.914,0.256,1.899,0.305,2.755-0.153
				c0.413-0.221,0.761-0.546,0.983-0.942c-0.098-0.117-0.129-0.282-0.008-0.446c0.083-0.113,0.169-0.226,0.253-0.339
				c0.003-0.03,0.01-0.059,0.011-0.09c0.011-0.239,0.191-0.385,0.393-0.435c0.14-0.176,0.279-0.353,0.428-0.518
				c1.602-1.762,3.634-3.054,5.597-4.37c1.949-1.307,3.849-2.674,5.432-4.422c3.168-3.497,5.064-7.927,7.283-12.034
				c1.114-2.062,2.318-4.089,3.791-5.918c1.618-2.008,3.527-3.753,5.541-5.355c2.027-1.612,4.154-3.09,6.233-4.632
				c2.095-1.553,4.119-3.196,6.039-4.961c1.939-1.782,3.783-3.672,5.506-5.663c0.857-0.991,1.687-2.006,2.488-3.044
				c0.813-1.054,1.56-2.159,2.396-3.195c0.106-0.132,0.237-0.187,0.365-0.194c0.961-1.095,2.13-2.022,3.271-2.904
				c1.767-1.366,3.542-2.723,5.348-4.037c3.264-2.376,6.642-4.624,10.281-6.39c1.876-0.91,3.812-1.69,5.738-2.486
				c1.99-0.822,3.974-1.656,5.954-2.502c3.955-1.689,7.891-3.423,11.803-5.207c3.836-1.749,7.581-3.644,11.109-5.963
				c0.149-0.098,0.336-0.068,0.491,0.017c3.224-1.968,6.461-3.905,9.608-5.999c3.389-2.256,6.688-4.647,9.892-7.157
				c3.195-2.503,6.295-5.127,9.29-7.865c3.01-2.751,5.915-5.618,8.705-8.592c1.383-1.475,2.739-2.975,4.064-4.503
				c1.132-1.305,2.189-2.763,3.531-3.871c-0.265-0.321-0.486-0.705-0.727-1.019C413.145,170.22,412.783,169.78,412.408,169.353z"/>
			<path style="fill:#020B2A;" d="M457.754,142.971c-0.026-0.101-0.012-0.191,0.022-0.269c-0.067-0.151-0.169-0.283-0.32-0.358
				c-0.28-0.141-0.644-0.096-0.942-0.051c-1.671,0.247-3.22,0.993-4.775,1.613c-2.855,1.138-5.783,2.161-8.816,2.701
				c-3.115,0.555-6.241,0.502-9.34-0.128c-3.152-0.64-6.172-1.78-9.129-3.021c-1.214-0.51-2.449-1.025-3.543-1.766
				c-0.497-0.337-1.001-0.738-1.42-1.204c-0.027,0.172-0.13,0.316-0.312,0.379c-0.205,0.071-0.506-0.012-0.588-0.236
				c-0.36-0.978-0.546-2.012-0.782-3.026c-0.238-1.018-0.479-2.034-0.719-3.051c-0.229-0.973-0.459-1.946-0.688-2.919
				c-0.182-0.773-0.327-1.766-1.051-2.236c-1.421-0.923-2.058,1.708-2.178,2.587c-0.241,1.773-0.28,3.587-0.402,5.371
				c-0.126,1.837-0.252,3.675-0.378,5.512c-0.115,1.671-0.2,3.348-0.404,5.012c-0.197,1.613-0.513,3.235-1.139,4.741
				c-0.578,1.388-1.421,2.591-2.427,3.7c-0.952,1.05-2.012,1.994-3.001,3.008c-0.497,0.51-0.973,1.039-1.405,1.605
				c-0.222,0.292-0.432,0.593-0.624,0.905c-0.082,0.133-0.175,0.272-0.257,0.415c0.169,0.058,0.307,0.205,0.328,0.38
				c0.781-0.003,1.562,0.141,2.307,0.391c2.07,0.695,3.846,2.096,5.438,3.551c0.796,0.728,1.547,1.505,2.248,2.326
				c0.344,0.403,0.676,0.816,0.994,1.239c0.219,0.29,0.483,0.6,0.678,0.932c0.018-0.003,0.036,0.004,0.054,0.004
				c1.547-1.42,3.244-2.701,4.917-3.958c1.864-1.401,3.75-2.777,5.687-4.075c3.291-2.204,6.791-3.999,10.726-4.685
				c3.981-0.694,8.065-0.515,12.029-1.337c1.775-0.368,3.514-0.937,5.081-1.862c0.614-0.362,1.708-0.874,1.488-1.742
				c-0.208-0.822-1.087-1.136-1.841-1.249c-2.012-0.301-4.065,0.061-6.063,0.296c-1.003,0.118-2.013,0.215-3.023,0.211
				c-0.526-0.002-1.045-0.05-1.568-0.097c-0.415-0.037-0.839-0.069-1.227,0.11c-0.613,0.283-1.077-0.613-0.528-0.934
				c-0.018-0.139,0.034-0.279,0.195-0.339c1.541-0.576,3.113-1.044,4.687-1.523c2.437-0.742,4.902-1.408,7.236-2.446
				c1.151-0.511,2.275-1.105,3.305-1.831c0.2-0.141,0.403-0.287,0.598-0.443c-0.038-0.173,0-0.353,0.173-0.47
				c0.406-0.276,0.705-0.686,0.796-1.16C457.842,143.361,457.806,143.173,457.754,142.971z"/>
		</g>
		<g>
			<path style="fill:#020B2A;" d="M420.875,111.194c0.079-0.876,0.217-1.767,0.229-2.648c0.849,0.005,1.61-0.719,2.256-1.179
				c0.874-0.623,1.744-1.25,2.615-1.876c1.76-1.264,3.518-2.53,5.273-3.8c0.793-0.574,1.668-1.108,2.37-1.796
				c0.212-0.208,0.385-0.431,0.534-0.666c0.284,0.159,0.562,0.316,0.87,0.444c0.37,0.153,0.744,0.297,1.117,0.442
				c0.766,0.299,1.529,0.605,2.288,0.918c1.406,0.58,2.805,1.179,4.171,1.848c-0.294,2.537-0.484,5.09-0.612,7.64
				c-0.067,1.328-0.116,2.658-0.13,3.988c-0.007,0.665-0.014,1.331-0.002,1.996c0.006,0.344,0.01,0.688,0.025,1.031
				c0.009,0.229,0.043,0.436,0.085,0.644c-0.355,0.173-0.672,0.514-0.964,0.749c-0.388,0.312-0.778,0.622-1.169,0.931
				c-0.797,0.631-1.601,1.253-2.411,1.868c-1.388,1.053-2.815,2.061-4.179,3.144c-0.395-0.259-0.912-0.418-1.321-0.597
				c-0.553-0.241-1.105-0.483-1.658-0.724c-1.105-0.483-2.211-0.965-3.316-1.448c-1.105-0.483-2.211-0.963-3.319-1.441
				c-1.033-0.446-2.06-0.93-3.119-1.314c0.005-1.739,0.048-3.479,0.148-5.216C420.715,113.152,420.787,112.172,420.875,111.194z"/>
			<path style="fill:#020B2A;" d="M438.025,122.509c0.798-0.596,1.591-1.2,2.377-1.812c0.393-0.306,0.784-0.614,1.174-0.925
				c0.205-0.163,0.452-0.327,0.672-0.512c0.236,0.306,0.684,0.481,1.004,0.648c0.481,0.252,0.966,0.498,1.455,0.735
				c0.979,0.475,1.969,0.921,2.974,1.338c2.007,0.833,4.058,1.562,6.141,2.181c0.598,0.178,1.198,0.347,1.801,0.506
				c0.525,0.139,1.069,0.305,1.612,0.389c-0.036,0.379,0.022,0.769,0.068,1.145c0.052,0.428,0.115,0.855,0.173,1.282
				c0.118,0.876,0.236,1.752,0.354,2.629c0.231,1.713,0.492,3.422,0.74,5.132c-1.438,0.336-2.56,1.518-3.678,2.435
				c-1.426,1.17-2.855,2.336-4.278,3.509c-0.794,0.655-1.587,1.312-2.38,1.967c-0.656,0.542-1.338,1.075-1.94,1.682
				c-0.216-0.148-0.491-0.206-0.738-0.284c-0.236-0.074-0.472-0.149-0.707-0.225c-0.49-0.158-0.979-0.322-1.466-0.49
				c-0.993-0.344-1.979-0.707-2.958-1.092c-0.959-0.377-1.911-0.772-2.855-1.182c-0.491-0.213-0.978-0.436-1.468-0.651
				c-0.21-0.092-0.456-0.232-0.708-0.335c0.014-0.124-0.018-0.253-0.096-0.346c-0.391-2.454-0.707-4.919-0.943-7.392
				c-0.12-1.259-0.222-2.52-0.311-3.782c-0.045-0.631-0.083-1.262-0.121-1.894c-0.034-0.554-0.027-1.13-0.162-1.672
				C435.234,124.584,436.637,123.546,438.025,122.509z"/>
			<path style="fill:#020B2A;" d="M442.641,118.235c0.044-0.208,0.081-0.414,0.09-0.643c0.014-0.342,0.019-0.685,0.03-1.028
				c0.021-0.643,0.032-1.286,0.053-1.928c0.044-1.35,0.095-2.701,0.169-4.05c0.142-2.599,0.38-5.188,0.655-7.775
				c0.508-0.097,1.016-0.301,1.501-0.451c0.597-0.185,1.195-0.365,1.794-0.542c1.158-0.342,2.323-0.66,3.486-0.985
				c2.317-0.648,4.651-1.234,6.995-1.775c0.204,0.301,0.449,0.577,0.675,0.858c0.342,0.425,0.679,0.855,1.01,1.288
				c0.64,0.836,1.262,1.685,1.865,2.548c1.215,1.74,2.351,3.538,3.414,5.375c0.571,0.986,1.115,1.987,1.638,2.998
				c-1.342,2.109-2.734,4.185-4.172,6.229c-0.744,1.058-1.502,2.106-2.273,3.145c-0.646,0.87-1.342,1.723-1.939,2.633
				c-0.48-0.174-1.002-0.261-1.496-0.389c-0.526-0.136-1.051-0.277-1.573-0.426c-1.026-0.292-2.044-0.61-3.054-0.955
				c-2.019-0.688-3.999-1.485-5.942-2.365c-0.531-0.24-1.058-0.489-1.584-0.74c-0.271-0.13-0.54-0.266-0.814-0.392
				c-0.139-0.064-0.289-0.138-0.443-0.18c0.001-0.003,0.003-0.006,0.005-0.009C442.802,118.515,442.75,118.351,442.641,118.235z"/>
			<path style="fill:#020B2A;" d="M458.779,129.917c-0.137-0.85-0.274-1.701-0.411-2.551c-0.069-0.425-0.134-0.851-0.206-1.276
				c-0.063-0.373-0.124-0.755-0.262-1.109c0.879-0.865,1.619-1.888,2.364-2.866c0.797-1.045,1.581-2.101,2.35-3.167
				c1.497-2.072,2.931-4.19,4.316-6.338c1.015,0.49,2.066,0.891,3.129,1.271c1.239,0.443,2.492,0.852,3.76,1.204
				c0.052,0.374,0.12,0.747,0.185,1.118c0.111,0.634,0.224,1.268,0.322,1.905c0.194,1.253,0.351,2.511,0.476,3.772
				c0.254,2.544,0.349,5.103,0.293,7.658c-0.008,0.353-0.02,0.706-0.031,1.058c-0.004,0.116-0.015,0.242-0.021,0.369
				c-0.273,0.193-0.493,0.458-0.723,0.7c-0.253,0.268-0.505,0.536-0.755,0.807c-0.513,0.554-1.019,1.115-1.518,1.681
				c-0.486,0.551-0.967,1.107-1.44,1.669c-0.237,0.281-0.469,0.568-0.699,0.855c-0.127,0.158-0.268,0.314-0.379,0.485
				c-0.335-0.089-0.681-0.147-1.019-0.218l-1.394-0.294c-0.887-0.187-1.774-0.374-2.661-0.562c-0.929-0.196-1.859-0.392-2.788-0.589
				c-0.691-0.146-1.395-0.313-2.105-0.336c-0.001-0.024,0.007-0.045,0.003-0.071C459.303,133.368,459.056,131.64,458.779,129.917z"
				/>
			<path style="fill:#020B2A;" d="M470.383,138.417c-0.011-0.242-0.007-0.518-0.19-0.699c-0.003-0.003-0.007-0.004-0.01-0.007
				c0-0.02-0.005-0.04-0.007-0.06c0.107-0.11,0.204-0.235,0.31-0.361c0.237-0.283,0.477-0.562,0.715-0.844
				c0.476-0.563,0.954-1.123,1.441-1.676c0.476-0.541,0.959-1.075,1.448-1.604c0.25-0.271,0.502-0.54,0.755-0.807
				c0.159-0.168,0.345-0.337,0.509-0.517c0.28,0.222,0.683,0.238,0.989,0.018c-1.478,3.624-3.6,6.903-6.226,9.694
				c0.052-0.311,0.098-0.623,0.135-0.936c0.055-0.476,0.094-0.954,0.117-1.433C470.382,138.929,470.395,138.673,470.383,138.417z"/>
			<path style="fill:#020B2A;" d="M475.998,131.115c0.003-0.073,0.008-0.155,0.008-0.145c0.011-0.29,0.019-0.581,0.024-0.872
				c0.01-0.582,0.012-1.163,0.005-1.745c-0.012-1.143-0.055-2.285-0.127-3.426c-0.148-2.319-0.413-4.626-0.818-6.914
				c-0.112-0.633-0.23-1.267-0.366-1.896c-0.096-0.441-0.198-0.885-0.336-1.316c0.03-0.08,0.034-0.164,0.018-0.245
				c0.262-0.386,0.436-0.851,0.615-1.267c0.254-0.589,0.5-1.182,0.733-1.78c0.226-0.578,0.444-1.16,0.654-1.744
				c0.094-0.26,0.185-0.522,0.276-0.784c1.515,4.05,2.225,8.472,1.924,13.059c-0.216,3.291-0.934,6.432-2.071,9.354
				C476.472,131.184,476.248,131.018,475.998,131.115z"/>
			<path style="fill:#020B2A;" d="M476.247,107.875c-0.158,0.221-0.225,0.476-0.316,0.74c-0.094,0.274-0.191,0.547-0.289,0.82
				c-0.21,0.584-0.428,1.165-0.654,1.744c-0.226,0.578-0.456,1.155-0.694,1.728c-0.167,0.402-0.397,0.824-0.522,1.257
				c-1.137-0.319-2.269-0.653-3.388-1.032c-1.109-0.375-2.198-0.801-3.306-1.178c-0.04-0.082-0.094-0.158-0.168-0.213
				c-1.962-3.781-4.263-7.373-6.876-10.737c-0.37-0.477-0.747-0.949-1.129-1.416c-0.3-0.367-0.596-0.768-0.951-1.092
				c-0.002-0.047-0.012-0.093-0.026-0.139c0.301-0.578,0.495-1.21,0.724-1.82c0.13-0.347,0.266-0.693,0.407-1.036
				c0.07-0.172,0.142-0.343,0.215-0.513c0.026-0.062,0.052-0.118,0.074-0.173c0.113,0.011,0.227,0.019,0.35,0.008
				c0.579-0.051,1.156-0.209,1.725-0.322c1.105-0.22,2.211-0.441,3.316-0.661C469.844,97.285,473.864,102.172,476.247,107.875z"/>
			<path style="fill:#020B2A;" d="M459.11,93.788c-0.212-0.12-0.377-0.329-0.539-0.505c-0.786-0.847-1.572-1.696-2.358-2.543
				c-0.397-0.428-0.795-0.854-1.194-1.28c3.044,0.783,5.9,2.006,8.503,3.595c-0.682,0.145-1.364,0.289-2.047,0.434
				c-0.534,0.113-1.067,0.237-1.603,0.34C459.608,93.88,459.352,93.926,459.11,93.788z"/>
			<path style="fill:#020B2A;" d="M453.6,89.129c0.236,0.347,0.552,0.652,0.826,0.958c0.428,0.479,0.858,0.956,1.288,1.432
				c0.813,0.899,1.592,1.856,2.456,2.706c0.13,0.128,0.266,0.23,0.406,0.32c-0.018,0.045-0.035,0.091-0.053,0.137
				c-0.075,0.184-0.149,0.368-0.222,0.553c-0.135,0.345-0.265,0.693-0.39,1.042c-0.201,0.563-0.416,1.141-0.512,1.735
				c-0.012,0.002-0.023,0.001-0.035,0.004c-2.42,0.545-4.823,1.159-7.21,1.833c-1.184,0.334-2.358,0.707-3.53,1.083
				c-0.596,0.192-1.191,0.387-1.784,0.586c-0.498,0.167-1.05,0.31-1.525,0.554c-0.103-0.027-0.215-0.025-0.318,0.005
				c-1.419-0.585-2.825-1.199-4.246-1.779c-0.741-0.302-1.486-0.598-2.232-0.886c-0.373-0.144-0.748-0.285-1.126-0.419
				c-0.325-0.115-0.644-0.183-0.971-0.251c0.193-0.415,0.326-0.861,0.435-1.329c0.554-2.366,1.114-4.731,1.659-7.1
				c3.951-1.423,8.247-2.08,12.697-1.788C450.709,88.623,452.172,88.832,453.6,89.129z"/>
			<path style="fill:#020B2A;" d="M435.401,90.733c-0.401,1.748-0.796,3.497-1.193,5.246c-0.201,0.884-0.32,1.934-0.821,2.709
				c-0.485,0.75-1.332,1.243-2.039,1.756c-1.632,1.184-3.262,2.369-4.889,3.558c-0.831,0.607-1.662,1.214-2.493,1.821
				c-0.415,0.304-0.83,0.608-1.245,0.913c-0.376,0.277-0.746,0.599-1.158,0.821c-0.727,0.391-1.164-0.077-1.604-0.624
				c-0.303-0.377-0.606-0.779-1.006-1.041C422.404,99.009,428.287,93.604,435.401,90.733z"/>
			<path style="fill:#020B2A;" d="M418.657,106.52c0.595,0.582,0.976,1.446,1.695,1.835c-0.208,0.864-0.272,1.772-0.359,2.653
				c-0.098,0.999-0.18,1.999-0.245,3.001c-0.129,1.982-0.19,3.967-0.188,5.953c0,0.022,0.009,0.038,0.012,0.058
				c-0.086,0.202-0.158,0.413-0.236,0.606c-0.156,0.389-0.312,0.779-0.462,1.171c-0.298,0.784-0.577,1.575-0.85,2.368
				c-0.266,0.773-0.522,1.55-0.768,2.329c-0.126,0.4-0.25,0.8-0.371,1.202c-0.046,0.153-0.11,0.318-0.165,0.487
				c-0.881-3.258-1.258-6.71-1.025-10.261C415.963,113.846,417.005,110.005,418.657,106.52z"/>
			<path style="fill:#020B2A;" d="M417.044,129.298c0.096,0.003,0.192-0.026,0.269-0.104c0.291-0.293,0.343-0.737,0.458-1.124
				c0.119-0.402,0.241-0.803,0.365-1.204c0.248-0.801,0.507-1.599,0.777-2.393c0.263-0.775,0.538-1.544,0.817-2.313
				c0.143-0.394,0.283-0.789,0.428-1.182c0.083-0.226,0.183-0.458,0.262-0.694c0.907,0.45,1.847,0.841,2.77,1.252
				c1.102,0.491,2.206,0.979,3.311,1.465c1.104,0.485,2.209,0.971,3.313,1.456c0.552,0.243,1.104,0.485,1.657,0.728l0.769,0.338
				c0.089,0.039,0.179,0.081,0.269,0.122c0.018,0.22,0.235,0.423,0.47,0.319c-0.023,0.423,0.01,0.855,0.022,1.27
				c0.019,0.632,0.048,1.263,0.081,1.894c0.068,1.287,0.163,2.572,0.282,3.855c0.227,2.454,0.536,4.9,0.916,7.336
				c-0.62,0.204-1.234,0.433-1.857,0.626c-0.858,0.267-1.721,0.519-2.592,0.74c-0.852,0.216-1.711,0.405-2.575,0.567
				c-0.432,0.081-0.865,0.155-1.299,0.224c-0.222,0.035-0.505,0.04-0.755,0.099C421.454,138.929,418.621,134.374,417.044,129.298z"
				/>
			<path style="fill:#020B2A;" d="M426.172,143.48c0.412-0.063,0.823-0.132,1.232-0.209c0.883-0.168,1.761-0.365,2.632-0.59
				c0.871-0.225,1.735-0.476,2.586-0.767c0.67-0.229,1.348-0.466,2-0.752c0.279,0.273,0.739,0.432,1.058,0.59
				c0.48,0.239,0.968,0.462,1.457,0.683c0.977,0.441,1.965,0.856,2.962,1.25c0.997,0.393,2.002,0.766,3.014,1.117
				c0.506,0.176,1.014,0.346,1.524,0.51c0.408,0.132,0.859,0.326,1.298,0.361c0.093,0.081,0.225,0.12,0.342,0.056
				c0.021-0.012,0.041-0.026,0.063-0.038c0.079,0.194,0.188,0.379,0.285,0.559c0.152,0.283,0.301,0.567,0.452,0.851
				c0.292,0.549,0.588,1.097,0.875,1.649c0.287,0.552,0.573,1.105,0.854,1.66c0.145,0.287,0.289,0.574,0.431,0.862
				c0.025,0.05,0.048,0.101,0.071,0.152c-1.386,0.094-2.792,0.107-4.216,0.013C437.795,150.959,431.24,148.015,426.172,143.48z"/>
			<path style="fill:#020B2A;" d="M450.343,151.338c-0.064-0.17-0.156-0.332-0.24-0.499c-0.144-0.287-0.289-0.574-0.435-0.86
				c-0.292-0.572-0.59-1.142-0.895-1.707c-0.306-0.565-0.612-1.131-0.934-1.687c-0.246-0.425-0.484-0.943-0.816-1.33
				c0.486-0.341,0.949-0.72,1.409-1.089c0.703-0.564,1.406-1.127,2.109-1.691c1.406-1.127,2.805-2.262,4.207-3.395
				c0.684-0.553,1.368-1.106,2.052-1.658c0.57-0.461,1.152-1.008,1.885-1.184c0.789-0.189,1.619,0,2.395,0.163
				c0.887,0.186,1.775,0.373,2.662,0.56c0.972,0.204,1.944,0.409,2.915,0.613l1.521,0.321c0.461,0.097,0.926,0.22,1.395,0.267
				c-0.01,0.066-0.017,0.134-0.024,0.202c-0.025,0.255-0.036,0.51-0.057,0.765c-0.038,0.478-0.093,0.955-0.164,1.43
				c-0.069,0.464-0.157,0.925-0.25,1.385c-0.035,0.173-0.118,0.494-0.106,0.766C464.001,147.478,457.49,150.614,450.343,151.338z"/>
		</g>
	</g>
</g>
</svg>
