<svg id="visual" viewBox="0 0 900 450" width="900" height="450" xmlns="http://www.w3.org/2000/svg" xmlns:xlink="http://www.w3.org/1999/xlink" version="1.1"><rect x="0" y="0" width="900" height="450" fill="#cdc2af"></rect><path d="M0 311L18.8 292C37.7 273 75.3 235 112.8 223.5C150.3 212 187.7 227 225.2 240.7C262.7 254.3 300.3 266.7 337.8 275C375.3 283.3 412.7 287.7 450.2 281.8C487.7 276 525.3 260 562.8 259.3C600.3 258.7 637.7 273.3 675.2 287.2C712.7 301 750.3 314 787.8 300.3C825.3 286.7 862.7 246.3 881.3 226.2L900 206L900 451L881.3 451C862.7 451 825.3 451 787.8 451C750.3 451 712.7 451 675.2 451C637.7 451 600.3 451 562.8 451C525.3 451 487.7 451 450.2 451C412.7 451 375.3 451 337.8 451C300.3 451 262.7 451 225.2 451C187.7 451 150.3 451 112.8 451C75.3 451 37.7 451 18.8 451L0 451Z" fill="#FFF" stroke-linecap="round" strokeLinejoin="miter"></path></svg>